<?xml version="1.0" encoding="UTF-8"?>
<svg width="300px" height="80px" viewBox="0 0 300 80" version="1.1" xmlns="http://www.w3.org/2000/svg" xmlns:xlink="http://www.w3.org/1999/xlink">
    <!-- Generator: Sketch 43.2 (39069) - http://www.bohemiancoding.com/sketch -->
    <title>tab-coraline</title>
    <desc>Created with Sketch.</desc>
    <defs></defs>
    <g id="Page-1" stroke="none" stroke-width="1" fill="none" fill-rule="evenodd">
        <g id="tab-coraline" stroke="#00355F" stroke-width="0.743">
            <g id="Page-1" transform="translate(49.000000, 21.000000)">
                <path d="M65.3101,10.7639 C66.8001,9.0079 67.3651,11.5739 67.8211,12.5599 C68.0581,13.0739 69.0851,14.3079 69.0611,14.5859 C68.9451,15.8639 67.5931,12.6899 67.6201,12.7329 C67.1291,11.9179 64.7541,11.4189 65.3101,10.7639 C65.8951,10.0739 64.7241,11.4539 65.3101,10.7639 Z M68.6071,10.7569 C67.5591,8.3389 65.6861,8.3569 63.7561,9.8329 C61.9241,11.2329 62.6351,12.8559 64.5611,13.5459 C65.9431,14.0399 65.6641,13.8089 66.5101,14.9519 C67.2371,15.9329 67.8331,16.6099 69.2211,15.9539 C71.5811,14.8389 69.2711,12.2899 68.6071,10.7569 C67.2321,7.5839 68.9111,11.4579 68.6071,10.7569 Z" id="Stroke-1"></path>
                <path d="M74.7271,8.6672 C74.6861,9.3192 73.7821,10.5192 73.2091,10.7342 C70.6091,11.7142 73.2291,8.4232 73.6611,7.8342 C74.3571,6.8862 74.7631,8.1032 74.7271,8.6672 Z M75.3541,6.8092 C73.5401,5.5452 70.6651,7.2292 69.6861,8.9462 C69.1161,9.9482 69.8891,12.7902 71.1061,13.2112 C73.3571,13.9892 78.1041,8.7232 75.3541,6.8092 C73.8291,5.7472 76.8791,7.8712 75.3541,6.8092 Z" id="Stroke-3"></path>
                <path d="M139.3345,17.1691 C139.8795,16.7961 140.3485,16.0551 140.9625,16.5031 C141.6055,16.9721 140.7665,18.2401 140.4385,18.5921 C138.8975,20.2451 138.3375,17.8511 139.3345,17.1691 C140.1385,16.6201 138.5305,17.7191 139.3345,17.1691 Z M137.7055,16.0021 C136.9945,16.7881 137.1905,16.5121 137.2405,17.5161 C137.3045,18.8101 137.2125,20.8281 138.6915,21.1191 C142.1425,21.7971 144.3635,15.1071 139.7905,14.9061 C139.1175,14.8761 138.1365,15.5261 137.7055,16.0021 Z" id="Stroke-5"></path>
                <path d="M176.1998,10.5393 C175.9368,10.8913 175.6928,11.3743 175.2628,11.3493 C173.7638,11.2583 175.6828,9.7373 175.7338,9.6513 C176.4698,8.4263 176.8838,9.6243 176.1998,10.5393 Z M174.7568,13.1503 C177.4678,14.4003 179.2758,8.2093 176.5118,7.7063 C173.5368,7.1653 171.8248,11.7993 174.7568,13.1503 Z" id="Stroke-7"></path>
                <path d="M130.7183,12.3859 C132.5353,12.8489 129.8643,13.9679 129.5863,14.1469 C129.0713,14.4799 127.5163,16.4059 126.9363,16.1549 C126.1383,15.8079 126.8723,14.1409 127.3213,13.8409 C127.7863,13.5309 130.1513,12.2409 130.7183,12.3859 Z M129.1383,11.0239 C127.2303,11.4259 124.8553,13.3089 124.4973,15.2889 C124.0163,17.9579 126.1813,18.9379 128.4133,17.8989 C130.3003,17.0199 133.0603,15.1439 132.8043,12.7569 C132.5733,10.5979 130.8333,10.6669 129.1383,11.0239 C127.9213,11.2799 130.3553,10.7679 129.1383,11.0239 Z" id="Stroke-9"></path>
                <path d="M55.8814,12.3181 C55.2994,13.4481 52.6714,10.3711 52.9214,9.8341 C53.8564,7.8301 56.1624,11.7731 55.8814,12.3181 Z M51.5984,8.9311 C50.3154,10.0171 51.4884,12.7811 52.3604,13.6681 C53.5504,14.8811 55.2904,15.0521 56.5514,13.7841 C58.1254,12.2011 56.8834,10.5361 55.6244,9.2431 C54.9484,8.5501 52.3604,8.2861 51.5984,8.9311 Z" id="Stroke-11"></path>
                <path d="M22.9839,18.6853 C22.4019,19.8153 19.7739,16.7383 20.0239,16.2023 C20.9579,14.1973 23.2639,18.1403 22.9839,18.6853 Z M18.6999,15.2983 C17.4169,16.3843 18.5909,19.1483 19.4619,20.0353 C20.6529,21.2483 22.3919,21.4193 23.6529,20.1523 C25.2269,18.5693 23.9849,16.9043 22.7259,15.6103 C22.0509,14.9173 19.4629,14.6533 18.6999,15.2983 Z" id="Stroke-13"></path>
                <path d="M169.275,8.6345 C169.538,7.5285 172.869,5.9605 172.734,7.5875 C172.528,7.8145 168.887,10.2665 169.275,8.6345 C169.495,7.7105 169.055,9.5585 169.275,8.6345 Z M170.53,5.4295 C168.773,5.9995 166.59,7.3505 167.402,9.4885 C167.915,10.8415 169.452,11.6995 170.775,11.0095 C171.39,10.6885 173.261,9.0955 173.604,8.4015 C174.438,6.7095 172.097,4.9225 170.53,5.4295 C169.513,5.7595 171.546,5.1005 170.53,5.4295 Z" id="Stroke-15"></path>
                <path d="M92.3248,18.6281 C93.1708,18.6761 94.2958,18.8951 93.6308,19.9241 C93.0288,20.8541 87.4428,21.6131 89.7208,20.0581 C90.9468,19.2211 90.7278,18.5381 92.3248,18.6281 Z M88.0718,19.3091 C87.5218,19.9581 86.6188,20.0201 86.9238,21.0941 C87.5108,23.1651 91.0258,22.9611 92.5308,22.4971 C94.0038,22.0431 95.5098,21.3941 95.2778,19.6071 C95.0318,17.7091 92.3548,16.0811 90.5258,16.7311 C89.0628,17.2501 88.9838,18.2301 88.0718,19.3091 Z" id="Stroke-17"></path>
                <path d="M39.1353,7.9763 C39.4813,7.2943 40.2713,10.0803 40.2523,10.0503 C40.6173,10.6403 41.8313,11.1103 41.6253,11.7073 C41.4503,12.2153 39.2223,12.8483 38.8213,12.4363 C38.3153,11.9193 39.1723,10.0663 39.2583,9.4653 C39.2693,9.3873 39.0573,8.1303 39.1353,7.9763 Z M36.5733,12.1003 C36.7083,15.5273 38.8553,15.5873 41.4113,14.6103 C43.5983,13.7753 44.2523,11.9613 43.0393,9.8173 C41.6813,7.4143 40.9843,5.3773 37.7653,6.3923 C35.9243,6.9723 36.5183,10.6673 36.5733,12.1003 Z" id="Stroke-19"></path>
                <path d="M28.3101,12.5266 C28.7781,12.7956 28.3381,13.1756 28.5291,13.6466 C28.6201,13.8716 30.3711,15.8506 30.3051,15.8796 C29.7241,16.1346 28.0941,15.4846 27.4631,15.3796 C26.2601,15.1786 25.5221,15.1606 26.6081,13.9436 C26.9201,13.5926 27.5921,12.1146 28.3101,12.5266 Z M29.8661,11.9646 C26.3621,8.6966 21.1301,15.9176 25.4281,17.7626 C25.6371,17.8526 26.2411,17.7126 26.5231,17.7516 C27.3771,17.8676 28.1921,18.3896 29.0671,18.4036 C30.0641,18.4196 31.6631,17.8476 31.8651,16.6736 C32.0141,15.7976 31.2901,15.0346 30.9121,14.3076 C30.5841,13.6826 30.3641,12.4296 29.8661,11.9646 C29.3971,11.5276 30.3331,12.4016 29.8661,11.9646 Z" id="Stroke-21"></path>
                <path d="M191.5074,14.5173 C192.0184,14.7043 193.7084,14.3243 193.4484,15.5933 C192.9754,17.9093 188.9374,14.9793 189.5314,13.4023 C189.7104,12.9293 191.1884,14.4003 191.5074,14.5173 Z M189.4914,11.4443 C184.8674,11.5383 188.2884,18.6413 191.6154,18.4993 C193.5124,18.4193 195.3154,16.7233 194.9574,14.9883 C194.7544,14.0043 194.3614,13.2813 193.4874,12.8223 C192.6664,12.3893 190.4514,11.4243 189.4914,11.4443 C188.6994,11.4603 190.2834,11.4283 189.4914,11.4443 Z" id="Stroke-23"></path>
                <path d="M10.5396,17.8161 C11.2046,16.9001 12.8486,16.5901 13.7226,15.7431 C14.2746,15.2071 14.7736,13.9371 15.5106,14.5941 C15.6496,14.7181 15.8246,15.9081 15.7586,16.1671 C15.5086,17.1371 15.4956,16.7401 14.6916,17.0791 C14.5636,17.1321 10.3906,18.0911 10.4546,18.1481 C10.4826,18.0371 10.0336,18.5151 10.5396,17.8161 Z M11.8416,15.2841 C10.9806,16.0531 9.7656,15.8451 8.8776,16.8701 C7.9916,17.8921 7.7316,18.9371 8.9006,19.7711 C9.7846,20.4011 10.9686,20.2601 11.9476,20.0661 C13.1286,19.8331 14.8556,19.7921 15.9016,19.1901 C17.5836,18.2231 18.1736,15.3681 16.9096,13.9701 C16.0106,12.9741 14.5896,12.4411 13.4136,13.1451 C12.5806,13.6431 12.5066,14.6911 11.8416,15.2841 C11.3296,15.7421 12.3536,14.8261 11.8416,15.2841 Z" id="Stroke-25"></path>
                <path d="M178.8072,14.5515 C178.9042,14.4795 178.9992,14.4075 179.0962,14.3365 C180.4622,14.6525 176.8312,16.5585 176.8002,16.5855 C176.0042,17.2805 176.5522,19.4085 176.0522,19.7045 C175.4292,20.0725 174.6502,17.4645 174.8782,16.9905 C175.3992,15.9125 177.9162,15.6595 178.8072,14.5515 C179.0952,14.1925 178.5182,14.9105 178.8072,14.5515 Z M180.7302,13.2525 C179.6532,11.7215 174.5882,14.5375 173.6902,15.7555 C172.4462,17.4425 173.0532,22.1885 175.4032,22.6535 C177.9822,23.1625 177.8422,20.4955 178.0322,18.9055 C178.2522,17.0555 178.4892,17.0585 180.0022,16.3425 C181.7242,15.5265 181.8592,14.8555 180.7302,13.2525 C180.0602,12.3005 181.4002,14.2045 180.7302,13.2525 Z" id="Stroke-27"></path>
                <path d="M111.0484,9.0368 C110.7714,8.9278 110.6574,8.7408 110.7094,8.4778 C110.8954,8.1188 112.1124,9.4298 112.1574,9.7808 C112.1644,9.8318 110.9594,8.9898 111.0484,9.0368 C110.5154,8.7578 111.5814,9.3158 111.0484,9.0368 Z M109.7964,7.5618 C106.8004,8.9858 111.1884,12.8178 113.2134,10.5628 C115.0314,8.5378 111.4554,6.7748 109.7964,7.5618 C108.4704,8.1928 111.1234,6.9328 109.7964,7.5618 Z" id="Stroke-29"></path>
                <path d="M99.3931,9.4162 C99.9331,10.4922 97.6141,10.6622 97.2931,9.9402 C96.7611,8.7432 99.0951,8.8242 99.3931,9.4162 Z M94.8921,9.9532 C95.0451,11.3072 96.5111,11.6442 97.4281,11.8032 C98.8501,12.0492 100.8541,11.8812 101.0421,10.0662 C101.2061,8.4922 99.9691,7.8242 98.6411,7.6572 C97.3561,7.4962 94.7111,8.3542 94.8921,9.9532 Z" id="Stroke-31"></path>
                <path d="M64.5884,16.7946 C65.6254,15.7886 68.0174,17.6296 67.5004,18.7116 C67.2024,19.3356 62.8914,18.4396 64.5884,16.7946 C65.2584,16.1446 63.9174,17.4436 64.5884,16.7946 Z M62.1924,18.8186 C62.9784,20.1196 66.3294,20.9816 67.7504,20.5676 C69.2694,20.1266 69.8784,18.5436 69.0014,17.2246 C68.4354,16.3706 67.7594,16.5806 67.0384,16.0396 C66.3964,15.5576 66.5114,14.6976 65.4674,14.7626 C63.8194,14.8646 61.0704,16.9626 62.1924,18.8186 Z" id="Stroke-33"></path>
                <path d="M3.0289,15.4562 C4.0669,14.4502 6.4589,16.2912 5.9409,17.3732 C5.6429,17.9972 1.3329,17.1012 3.0289,15.4562 C3.6989,14.8072 2.3589,16.1052 3.0289,15.4562 Z M0.6329,17.4802 C1.4199,18.7812 4.7699,19.6432 6.1919,19.2292 C7.7109,18.7882 8.3189,17.2052 7.4429,15.8862 C6.8759,15.0322 6.2009,15.2432 5.4799,14.7022 C4.8379,14.2192 4.9529,13.3592 3.9089,13.4242 C2.2609,13.5272 -0.4891,15.6242 0.6329,17.4802 Z" id="Stroke-35"></path>
                <path d="M185.1763,13.1477 C185.3223,13.7127 184.8413,14.3557 184.6013,14.9207 C184.4533,15.2697 184.1643,16.8237 183.6183,16.4427 C183.0493,16.0457 184.2073,14.3757 184.1933,13.8507 C184.1793,13.3847 184.9193,12.1497 185.1763,13.1477 Z M186.5653,13.7097 C186.8163,11.4867 183.9843,10.3957 182.5863,11.9907 C181.5383,13.1877 181.4753,14.6587 181.6683,16.1087 C181.9863,18.4857 183.1933,18.9507 185.0073,17.3247 C186.0673,16.3757 186.4033,15.1517 186.5653,13.7097 C186.7563,12.0167 186.5073,14.2217 186.5653,13.7097 Z" id="Stroke-37"></path>
                <path d="M85.4371,22.3015 C85.2241,22.6785 85.6121,23.3955 84.7831,23.0085 C84.3461,22.8045 84.3401,21.5025 84.6591,21.2235 C85.9611,20.0815 86.0011,21.3035 85.4371,22.3015 Z M83.7571,23.0805 C84.2271,24.4205 84.5091,25.9545 86.1111,24.2695 C87.7911,22.4995 87.2711,18.2845 84.1691,19.8055 C82.4041,20.6715 83.3001,21.7735 83.7571,23.0805 Z" id="Stroke-39"></path>
                <path d="M100.315,19.0524 C100.87,17.9204 101.584,19.1134 101.434,19.8084 C101.158,21.0994 99.762,20.1794 100.315,19.0524 C100.47,18.7354 100.16,19.3694 100.315,19.0524 Z M100.617,17.3654 C99.18,17.4094 97.318,19.2814 98.615,20.7954 C98.977,21.2184 101.374,21.9784 101.721,21.8124 C103.633,20.8984 102.731,17.3014 100.617,17.3654 C99.453,17.4014 101.781,17.3304 100.617,17.3654 Z" id="Stroke-41"></path>
                <path d="M70.9439,20.9587 C71.2049,19.8887 70.9839,20.0217 72.2139,19.7927 C72.6359,19.7137 73.5189,19.4047 73.5059,20.0807 C73.4959,20.5177 70.4199,23.1227 70.9439,20.9587 C71.0659,20.4567 70.8219,21.4617 70.9439,20.9587 Z M70.7169,18.3157 C69.9809,18.3237 68.8959,19.3727 68.8299,20.1577 C68.7699,20.8607 69.1539,21.0577 69.5049,21.6937 C70.3379,23.2067 70.8109,25.3067 72.8419,23.5057 C73.9009,22.5667 75.4139,20.3377 74.7229,18.9597 C73.9129,17.3427 72.0709,18.3027 70.7169,18.3157 C69.4359,18.3297 71.9989,18.3037 70.7169,18.3157 Z" id="Stroke-43"></path>
                <path d="M110.733,22.7434 C111.342,22.3024 110.192,25.6424 109.523,25.3804 C108.533,24.9934 110.323,23.0404 110.733,22.7434 C111.039,22.5214 110.426,22.9654 110.733,22.7434 Z M108.807,23.6674 C108.523,24.3934 108.197,24.2294 107.839,24.7854 C106.845,26.3334 108.499,27.4724 110.286,26.9534 C111.155,26.7014 111.266,26.4034 111.616,25.6264 C111.914,24.9684 112.55,23.6204 112.659,22.9654 C112.773,22.2704 113.212,21.9004 112.247,21.4344 C111.837,21.2364 109.83,21.5874 109.359,21.8154 C108.466,22.2464 109.119,22.8714 108.807,23.6674 Z" id="Stroke-45"></path>
                <path d="M51.1841,15.9572 C51.1461,16.7732 49.7071,17.6082 49.6481,16.6232 C49.5581,15.1472 51.2631,14.2512 51.1841,15.9572 Z M47.3331,17.3892 C47.7431,18.2852 50.2471,19.0922 51.0681,18.7792 C51.7861,18.5052 53.0371,16.8292 52.9911,15.9942 C52.9471,15.1892 51.1711,13.4572 50.3501,13.5522 C49.2481,13.6802 46.8111,16.2462 47.3331,17.3892 Z" id="Stroke-47"></path>
                <path d="M40.6422,2.78 C40.6042,3.596 39.1652,4.431 39.1062,3.446 C39.0172,1.97 40.7222,1.074 40.6422,2.78 Z M36.7912,4.212 C37.2012,5.108 39.7052,5.915 40.5272,5.602 C41.2442,5.328 42.4952,3.652 42.4492,2.817 C42.4052,2.013 40.6292,0.28 39.8082,0.375 C38.7062,0.503 36.2692,3.069 36.7912,4.212 Z" id="Stroke-49"></path>
                <path d="M108.0425,21.6066 C107.9435,22.2116 106.7115,23.0306 106.0365,22.6866 C105.7275,22.5276 106.7195,21.3146 106.6435,20.9796 C106.3725,19.7876 108.2375,20.3956 108.0425,21.6066 Z M105.0175,24.2776 C106.9615,25.2866 108.2775,24.1586 109.2245,22.4766 C110.1905,20.7606 108.9595,19.8256 107.4275,18.8736 C105.0325,17.3856 102.3235,22.8786 105.0175,24.2776 Z" id="Stroke-51"></path>
                <path d="M74.773,15.1926 C75.283,15.8956 74.739,15.7026 74.32,16.1846 C73.181,17.4926 71.594,16.8806 72.941,15.3576 C73.371,14.8716 74.332,14.5846 74.773,15.1926 Z M71.887,13.3706 C68.213,14.2786 70.401,19.0936 73.989,17.5636 C75.106,17.0876 76.554,16.1416 75.804,14.8696 C75.246,13.9216 72.876,13.1266 71.887,13.3706 C71.024,13.5836 72.75,13.1566 71.887,13.3706 Z" id="Stroke-53"></path>
                <path d="M22.2193,11.6384 C22.7293,12.3414 22.1843,12.1484 21.7653,12.6304 C20.6273,13.9374 19.0403,13.3254 20.3863,11.8034 C20.8163,11.3174 21.7783,11.0304 22.2193,11.6384 Z M19.3323,9.8164 C15.6583,10.7244 17.8473,15.5394 21.4353,14.0094 C22.5523,13.5334 24.0003,12.5874 23.2503,11.3144 C22.6923,10.3674 20.3223,9.5724 19.3323,9.8164 C18.4703,10.0294 20.1963,9.6024 19.3323,9.8164 Z" id="Stroke-55"></path>
                <path d="M78.9088,13.6979 C77.7258,14.6979 76.8668,12.5129 77.7308,11.6959 C79.0138,10.4819 79.6438,13.0749 78.9088,13.6979 Z M77.9818,15.4099 C81.0218,15.0619 81.3518,10.2149 78.4868,9.3809 C74.7778,8.3019 73.3438,15.9409 77.9818,15.4099 Z" id="Stroke-57"></path>
                <path d="M132.8931,16.6369 C134.0261,15.7259 134.8251,18.1249 134.0461,18.9289 C132.6661,20.3539 131.9221,17.4169 132.8931,16.6369 C133.2001,16.3899 132.5851,16.8839 132.8931,16.6369 Z M132.1671,15.4079 C131.1701,16.0309 131.6201,16.0769 131.4751,17.0179 C131.3341,17.9249 130.5441,19.3669 131.0801,20.2229 C133.2911,23.7589 138.0991,17.4139 134.3371,15.2379 C133.7611,14.9039 132.7081,15.0709 132.1671,15.4079 Z" id="Stroke-59"></path>
                <path d="M141.6773,3.4597 C142.8103,2.5487 143.6103,4.9477 142.8313,5.7517 C141.4503,7.1767 140.7073,4.2397 141.6773,3.4597 C141.9853,3.2127 141.3703,3.7067 141.6773,3.4597 Z M140.9513,2.2307 C139.9553,2.8537 140.4053,2.8997 140.2593,3.8407 C140.1193,4.7477 139.3293,6.1897 139.8653,7.0457 C142.0763,10.5817 146.8833,4.2367 143.1223,2.0607 C142.5453,1.7267 141.4923,1.8937 140.9513,2.2307 Z" id="Stroke-61"></path>
                <path d="M146.9488,5.217 C148.0818,4.306 148.8808,6.705 148.1018,7.508 C146.7218,8.934 145.9778,5.997 146.9488,5.217 C147.2558,4.97 146.6408,5.464 146.9488,5.217 Z M146.2228,3.988 C145.2258,4.61 145.6758,4.657 145.5308,5.597 C145.3898,6.505 144.5998,7.947 145.1358,8.802 C147.3468,12.339 152.1548,5.994 148.3928,3.817 C147.8168,3.484 146.7638,3.651 146.2228,3.988 Z" id="Stroke-63"></path>
                <path d="M115.5797,11.6135 C117.5297,11.7835 116.7977,15.8695 115.3087,15.9985 C114.8687,16.0365 115.7177,14.3325 115.7347,14.1595 C115.8027,13.4875 115.2567,12.7595 115.5217,12.0575 C115.5177,11.9055 115.5367,11.7585 115.5797,11.6135 Z M113.9577,11.5945 C114.0837,12.5545 114.4387,12.8715 114.1647,13.8015 C113.8907,14.7315 113.1177,14.8915 113.4627,16.0155 C114.1967,18.4145 117.2667,17.2025 118.0897,15.6275 C119.0337,13.8205 117.8497,12.0495 116.6637,10.7245 C115.3857,9.2945 113.6977,9.6185 113.9577,11.5945 Z" id="Stroke-65"></path>
                <path d="M95.2349,23.175 C95.2499,23.037 97.6349,22.714 97.7809,23.475 C98.0509,24.888 95.0959,24.566 95.2349,23.175 C95.2959,22.576 95.1749,23.775 95.2349,23.175 Z M93.4049,23.737 C93.3499,25.268 95.9399,26.033 97.1509,26.068 C98.9959,26.12 99.1479,24.86 99.0439,23.165 C98.9369,21.451 98.2479,21.273 96.6699,21.521 C95.4799,21.709 93.4589,22.232 93.4049,23.737 Z" id="Stroke-67"></path>
                <path d="M55.772,17.5202 C55.745,17.1872 55.759,16.8562 55.816,16.5272 C56.025,16.3742 56.211,16.3762 56.373,16.5362 C56.343,16.9642 56.036,17.1832 56.158,17.6722 C56.162,17.6892 56.894,18.5742 56.819,18.6942 C56.087,19.8662 55.737,17.8892 55.772,17.5202 C55.836,16.8572 55.708,18.1822 55.772,17.5202 Z M55.396,20.8532 C57.629,21.1542 58.423,19.8272 58.076,18.0172 C57.931,17.7532 57.775,17.4982 57.606,17.2492 C57.608,16.9582 57.667,16.6782 57.782,16.4072 C57.495,15.5052 57.445,15.4112 56.514,14.8742 C53.971,13.4042 50.638,20.2112 55.396,20.8532 Z" id="Stroke-69"></path>
                <path d="M186.4097,18.7966 C187.6907,17.9196 189.0267,18.7726 187.5467,19.9696 C186.0777,21.1556 185.4347,19.4636 186.4097,18.7966 C187.0097,18.3866 185.8107,19.2066 186.4097,18.7966 Z M187.5267,17.0026 C183.8447,16.0446 182.8137,22.9236 187.1537,22.5636 C188.2057,22.4756 189.5937,20.9036 190.0807,19.9016 C190.9747,18.0676 189.0187,17.3906 187.5267,17.0026 C186.4037,16.7106 188.6497,17.2946 187.5267,17.0026 Z" id="Stroke-71"></path>
                <path d="M120.0611,8.3474 C120.1831,8.6814 120.1631,9.0074 120.0011,9.3244 C120.0371,9.7054 120.0421,10.5684 119.8091,10.9524 C119.0721,12.1674 119.6401,9.2094 119.5811,8.9884 C119.4631,8.4984 119.6241,8.2854 120.0611,8.3474 Z M117.4021,7.7384 C117.2321,8.3254 117.9081,9.1814 117.9571,9.7874 C118.0301,10.6984 117.4831,11.4424 118.0161,12.2754 C119.3441,14.3544 121.2801,12.5604 121.7661,10.9544 C121.9771,10.2574 121.7431,7.8274 121.3161,7.2184 C120.6321,6.2414 117.7361,6.5864 117.4021,7.7384 Z" id="Stroke-73"></path>
                <path d="M192.2252,24.2658 C192.3462,24.5998 192.3272,24.9258 192.1652,25.2428 C192.2002,25.6238 192.2062,26.4868 191.9732,26.8708 C191.2352,28.0858 191.8032,25.1278 191.7452,24.9068 C191.6272,24.4168 191.7882,24.2038 192.2252,24.2658 Z M189.5662,23.6568 C189.3962,24.2438 190.0712,25.0998 190.1202,25.7058 C190.1932,26.6168 189.6472,27.3608 190.1792,28.1938 C191.5082,30.2728 193.4432,28.4788 193.9292,26.8728 C194.1402,26.1758 193.9062,23.7458 193.4802,23.1368 C192.7962,22.1598 189.9002,22.5038 189.5662,23.6568 Z" id="Stroke-75"></path>
                <path d="M60.6783,14.8005 C60.3383,15.0605 59.6693,15.0205 59.4533,14.3285 C59.3723,14.0665 60.2783,12.6765 60.5053,12.4745 C61.3493,11.7195 61.1203,14.4615 60.6783,14.8005 Z M60.1763,16.4725 C61.8353,16.4665 63.0713,14.7145 63.0623,13.2235 C63.0503,11.4235 61.9583,10.9575 60.3773,10.6885 C58.0363,10.2885 57.2033,16.4855 60.1763,16.4725 Z" id="Stroke-77"></path>
                <path d="M87.9976,15.9543 C87.9476,16.0713 85.8366,17.4293 85.5656,17.1443 C85.3976,16.9683 86.7556,15.5083 86.7816,15.4673 C87.4586,14.3893 88.4146,14.9683 87.9976,15.9543 Z M86.0506,18.4813 C87.0426,18.2953 89.1216,17.7773 89.5766,16.8223 C90.1996,15.5153 88.7356,13.9083 87.6046,13.4633 C86.3676,12.9753 81.3716,19.3573 86.0506,18.4813 Z" id="Stroke-79"></path>
                <path d="M48.1207,11.8913 C47.8167,12.0973 45.9347,11.8323 45.9257,11.4023 C45.8877,9.7623 49.4477,9.9333 48.1207,11.8913 Z M47.8047,8.7683 C46.2157,8.7033 43.4727,9.9013 44.0207,11.7903 C44.4937,13.4183 46.7247,13.9073 48.1677,13.7873 C49.8687,13.6453 50.7347,12.2463 50.8727,10.5863 C51.0787,8.0963 49.4247,8.8343 47.8047,8.7683 C46.9697,8.7343 48.6387,8.8023 47.8047,8.7683 Z" id="Stroke-81"></path>
                <path d="M157.2437,11.0856 C158.4847,11.4286 157.6617,14.1666 156.4727,14.0756 C155.2247,13.9816 156.3617,11.8576 156.8997,11.4816 C156.9987,11.3356 157.1127,11.2036 157.2437,11.0856 Z M153.6587,13.5906 C153.2517,15.4466 154.9567,16.3266 156.5687,16.0966 C160.0347,15.6016 160.8657,10.1066 157.0117,9.7486 C155.7227,9.6286 153.9157,12.4156 153.6587,13.5906 Z" id="Stroke-83"></path>
                <path d="M33.3121,12.8352 C33.4381,12.1402 34.1051,11.8572 34.4671,12.6662 C35.0601,13.9912 33.0831,14.1002 33.3121,12.8352 C33.3751,12.4862 33.2501,13.1832 33.3121,12.8352 Z M34.9211,15.0782 C37.8741,13.7792 35.0791,10.3562 32.7051,10.7692 C29.8531,11.2642 31.4171,16.6192 34.9211,15.0782 Z" id="Stroke-85"></path>
                <path d="M114.0757,19.4665 C113.9337,20.9005 111.3027,19.2615 110.9687,18.4855 C110.4417,17.2605 114.1737,18.4865 114.0757,19.4665 Z M111.0227,20.9655 C112.0377,21.2295 114.6597,22.1765 115.4547,21.1195 C116.5987,19.6005 114.0927,17.3795 113.0137,16.8035 C109.8057,15.0895 106.7197,19.8455 111.0227,20.9655 Z" id="Stroke-87"></path>
                <path d="M9.6246,13.446 C10.1316,15.028 7.9326,14.334 8.2706,13.543 C8.6436,12.671 9.2096,12.152 9.6246,13.446 Z M9.6996,11.524 C7.5836,9.932 4.9226,14.668 7.9706,16.042 C9.0836,16.544 10.7586,15.786 11.2146,14.557 C11.7006,13.25 10.6096,12.209 9.6996,11.524 C8.5606,10.667 10.8396,12.382 9.6996,11.524 Z" id="Stroke-89"></path>
                <path d="M23.9322,23.551 C24.4382,25.133 22.2392,24.439 22.5782,23.648 C22.9502,22.776 23.5172,22.257 23.9322,23.551 Z M24.0062,21.629 C21.8902,20.037 19.2292,24.773 22.2772,26.147 C23.3902,26.649 25.0652,25.891 25.5222,24.662 C26.0072,23.355 24.9162,22.314 24.0062,21.629 C22.8672,20.772 25.1462,22.487 24.0062,21.629 Z" id="Stroke-91"></path>
                <path d="M197.7271,18.5666 C198.6091,19.7006 197.9491,19.5136 196.9901,19.9406 C196.2821,20.2556 195.3391,21.3706 194.6841,20.9356 C193.5391,20.1756 195.8931,19.1726 196.4011,18.7586 C197.3701,17.9686 197.0621,17.7106 197.7271,18.5666 Z M192.3441,21.8836 C193.6661,23.9836 194.4451,23.7776 196.2071,22.5436 C198.1121,21.2086 201.2001,20.6056 199.2591,17.7616 C197.9891,15.8986 196.4361,16.1646 195.0371,17.7106 C193.5871,19.3106 190.4961,18.9496 192.3441,21.8836 Z" id="Stroke-93"></path>
                <path d="M144.8941,16.0978 C144.8111,15.9868 144.2941,14.5858 144.8531,14.5278 C145.3501,14.4748 145.6041,16.4778 145.8161,16.8408 C146.1551,17.4228 147.4931,17.9958 147.6281,18.5308 C147.8631,19.4478 147.1671,19.7458 146.4141,19.0518 C145.7381,18.4298 145.4951,16.8998 144.8941,16.0978 C144.5351,15.6188 145.2531,16.5778 144.8941,16.0978 Z M143.2691,19.7398 C144.2941,21.5098 148.0641,23.1088 149.2501,20.5958 C149.5141,20.0368 149.3751,18.8918 149.2941,18.3228 C149.0881,16.8588 148.7581,17.3878 147.6631,16.5688 C146.1371,15.4298 146.7251,12.6208 144.4341,13.4008 C143.0011,13.8898 142.6291,18.6348 143.2691,19.7398 Z" id="Stroke-95"></path>
                <path d="M87.3306,10.3835 L87.5976,9.9765 C87.7496,9.8325 87.8486,12.6845 87.3066,12.2155 C87.0566,11.9985 87.2196,10.5965 87.3306,10.3835 C87.5226,10.0165 87.1396,10.7515 87.3306,10.3835 Z M87.5326,13.7405 C89.2696,13.2195 89.3596,8.9055 87.3316,8.8685 C85.8896,8.8425 85.1266,14.4615 87.5326,13.7405 Z" id="Stroke-97"></path>
                <path d="M77.313,19.0178 C77.349,18.8558 79.075,21.5458 78.835,21.5468 C78.761,21.5468 76.898,20.5828 76.914,20.6178 C76.669,20.0708 77.145,19.6318 77.313,19.0178 C77.389,18.7408 77.238,19.2948 77.313,19.0178 Z M77.513,17.3848 C75.317,16.6168 75.263,19.1208 75.358,20.5088 C75.487,22.4138 76.273,22.3558 78.042,22.9498 C82.699,24.5128 80.038,18.2668 77.513,17.3848 C76.753,17.1188 78.274,17.6498 77.513,17.3848 Z" id="Stroke-99"></path>
                <path d="M83.0172,18.7951 C82.6212,20.9651 80.0172,17.3351 80.1862,16.6021 C80.1372,16.8171 83.1552,18.0391 83.0172,18.7951 Z M79.8592,19.2101 C80.5472,20.4471 82.0332,21.5541 83.4212,20.5571 C84.7142,19.6281 84.4952,17.5621 83.2692,16.7771 C82.5142,16.2951 80.3902,15.4801 79.6202,15.7671 C78.1422,16.3181 79.2262,18.0721 79.8592,19.2101 Z" id="Stroke-101"></path>
                <path d="M106.7359,29.3371 C106.3399,31.5071 103.7359,27.8771 103.9059,27.1441 C103.8559,27.3591 106.8739,28.5801 106.7359,29.3371 Z M103.5779,29.7521 C104.2659,30.9891 105.7519,32.0961 107.1399,31.0981 C108.4329,30.1701 108.2149,28.1041 106.9879,27.3191 C106.2329,26.8371 104.1099,26.0221 103.3389,26.3091 C101.8609,26.8591 102.9449,28.6141 103.5779,29.7521 Z" id="Stroke-103"></path>
                <path d="M125.6304,9.6599 C125.5774,9.5689 124.2414,11.6529 124.1534,11.8239 C123.8454,12.4279 123.1784,10.4559 123.2214,10.6569 C122.9694,9.4959 125.3124,9.1029 125.6304,9.6599 Z M121.5904,10.8659 C121.7544,12.1549 122.6144,13.7859 124.1964,13.3529 C124.9734,13.1409 124.8754,12.7609 125.3844,12.2029 C125.7394,11.8129 126.8374,11.0989 127.0604,10.7499 C127.9264,9.3979 126.8164,7.9689 125.2694,8.0339 C123.2314,8.1199 121.2944,8.5339 121.5904,10.8659 Z" id="Stroke-105"></path>
                <path d="M103.6675,32.5002 C103.6155,32.4092 102.2795,34.4932 102.1915,34.6642 C101.8835,35.2682 101.2165,33.2962 101.2595,33.4972 C101.0075,32.3372 103.3505,31.9432 103.6675,32.5002 Z M99.6285,33.7062 C99.7925,34.9952 100.6525,36.6262 102.2345,36.1932 C103.0105,35.9812 102.9135,35.6012 103.4225,35.0432 C103.7775,34.6532 104.8755,33.9392 105.0985,33.5912 C105.9645,32.2382 104.8545,30.8092 103.3075,30.8742 C101.2695,30.9602 99.3325,31.3742 99.6285,33.7062 Z" id="Stroke-107"></path>
                <path d="M90.7359,24.926 C90.6839,24.835 89.3469,26.919 89.2589,27.09 C88.9509,27.694 88.2839,25.722 88.3269,25.923 C88.0749,24.763 90.4179,24.369 90.7359,24.926 Z M86.6959,26.132 C86.8599,27.421 87.7199,29.052 89.3029,28.619 C90.0789,28.407 89.9809,28.027 90.4899,27.469 C90.8449,27.079 91.9429,26.365 92.1669,26.017 C93.0319,24.664 91.9219,23.235 90.3749,23.3 C88.3379,23.386 86.3999,23.8 86.6959,26.132 Z" id="Stroke-109"></path>
                <path d="M153.4195,16.8093 C154.1005,16.3333 153.6905,22.1013 151.7485,21.1403 C150.7415,20.6413 152.2345,19.9153 152.4945,19.3193 C152.9615,18.2453 152.2695,17.6123 153.4195,16.8093 C154.2145,16.2543 152.4545,17.4823 153.4195,16.8093 Z M154.5065,15.8533 C153.6065,14.6753 151.2935,16.3293 150.6145,17.1263 C149.6685,18.2353 149.3015,20.9793 150.1555,22.2713 C151.3235,24.0393 154.0415,22.2873 154.9215,21.0453 C156.6205,18.6443 156.1385,17.9893 154.5065,15.8533 C153.5545,14.6083 155.3785,16.9953 154.5065,15.8533 Z" id="Stroke-111"></path>
                <path d="M160.063,16.9221 C160.254,16.9791 160.725,18.1951 160.672,18.3461 C160.569,18.6491 160.01,18.6161 159.815,18.7691 C159.543,18.9811 158.739,19.4651 158.359,19.4221 C158.209,19.4051 157.442,19.0651 157.697,18.8931 C158.73,18.1961 159.105,18.4991 159.779,17.2331 L160.063,16.9221 Z M156.127,17.9601 C155.769,18.9131 156.343,21.0961 157.238,21.6171 C158.378,22.2791 161.976,20.2051 162.244,19.0901 C162.525,17.9151 161.137,15.5751 160.268,15.1331 C159.401,14.6931 156.446,17.1141 156.127,17.9601 Z" id="Stroke-113"></path>
                <path d="M45.8609,4.6232 C46.0519,4.6802 46.5219,5.8962 46.4699,6.0472 C46.3669,6.3502 45.8079,6.3172 45.6129,6.4702 C45.3399,6.6822 44.5369,7.1662 44.1569,7.1232 C44.0069,7.1062 43.2389,6.7672 43.4949,6.5942 C44.5269,5.8972 44.9029,6.2002 45.5769,4.9342 L45.8609,4.6232 Z M41.9249,5.6612 C41.5659,6.6142 42.1409,8.7982 43.0359,9.3182 C44.1749,9.9802 47.7729,7.9062 48.0409,6.7912 C48.3229,5.6162 46.9349,3.2762 46.0649,2.8342 C45.1979,2.3942 42.2439,4.8152 41.9249,5.6612 Z" id="Stroke-115"></path>
                <path d="M102.939,23.8127 C103.175,24.7407 101.624,23.8897 101.391,23.4687 C101.125,22.9877 102.752,23.0777 102.939,23.8127 Z M99.937,23.9467 C100.291,24.9937 101.642,26.0837 102.764,25.7187 C105.554,24.8107 103.365,21.0567 101.329,21.9707 C100.069,22.5367 99.492,22.6217 99.937,23.9467 Z" id="Stroke-117"></path>
                <path d="M183.0552,22.8732 C182.1322,23.3102 180.5802,18.6722 180.3322,18.0072 C180.0872,17.3532 183.5722,22.6282 183.0552,22.8732 Z M178.7842,19.6802 C178.8752,21.5252 180.0192,22.9672 181.5022,24.0102 C183.3832,25.3332 185.3712,24.7862 184.2082,22.4722 C183.8642,21.7882 183.1262,21.3272 182.9262,20.5302 C182.6512,19.4392 183.4052,18.7002 182.2472,17.9432 C180.1142,16.5482 178.6242,16.4122 178.7842,19.6802 Z" id="Stroke-119"></path>
                <path d="M36.6255,17.8864 C37.7615,18.1184 38.2875,16.3304 39.4105,17.5644 C39.8585,18.0574 39.8885,18.6284 39.1915,18.9964 C38.5995,19.3094 38.2525,18.5724 37.6945,18.2774 C37.3575,18.0874 37.0015,17.9564 36.6255,17.8864 Z M34.5195,17.8694 C34.6315,18.9314 35.1715,18.8664 35.8465,19.4554 C37.2405,20.6714 38.4325,21.7584 40.2525,20.5744 C42.0495,19.4054 41.6005,17.4794 40.2245,16.0334 C38.8055,14.5424 37.9685,14.9954 36.2675,15.4154 C35.2295,15.6714 34.4055,16.8034 34.5195,17.8694 Z" id="Stroke-121"></path>
                <path d="M83.8726,9.9753 C84.2116,9.6673 84.3556,13.1303 84.1656,13.3563 C83.1676,14.5453 82.9306,12.9973 83.0096,12.4053 C83.0596,12.0313 83.6686,10.1613 83.8726,9.9753 C84.7126,9.2133 83.5766,10.2433 83.8726,9.9753 Z M81.0996,11.8233 C80.5316,12.9983 80.9276,14.8883 82.1896,15.5833 C83.6656,16.3963 85.4376,14.9113 85.6266,13.4723 C85.7496,12.5283 85.0856,9.1083 84.0656,8.7453 C83.3596,8.4943 81.4626,11.0723 81.0996,11.8233 Z" id="Stroke-123"></path>
                <path d="M107.2955,17.1872 C107.1715,17.7112 104.1235,17.9812 104.4805,16.7462 C104.4825,16.7392 107.5345,16.1702 107.2955,17.1872 Z M102.4005,18.3852 C102.9045,19.0222 105.3425,19.1922 106.0095,19.1382 C109.8145,18.8312 108.9795,13.8202 105.2375,14.8622 C104.0345,15.1972 100.7965,16.3542 102.4005,18.3852 Z" id="Stroke-125"></path>
                <path d="M110.6295,14.6525 C109.4695,14.3095 109.8635,12.5865 111.0515,12.6505 C112.5845,12.7345 111.8875,15.0245 110.6295,14.6525 C110.0035,14.4675 111.2545,14.8375 110.6295,14.6525 Z M108.1655,14.0645 C108.2825,15.5045 110.3355,16.4875 111.6585,16.2095 C114.9595,15.5155 114.4455,11.1365 110.9585,11.5275 C109.6645,11.6725 108.0205,12.2865 108.1655,14.0645 Z" id="Stroke-127"></path>
                <path d="M149.7466,11.424 C150.2036,10.571 152.0556,12.887 151.5486,13.597 C150.4326,15.164 149.1366,12.563 149.7466,11.424 C150.0826,10.798 149.4106,12.05 149.7466,11.424 Z M147.4526,15.024 C148.6436,17.168 150.1516,17.108 151.9766,15.825 C154.0306,14.383 153.2476,13.345 152.5586,11.352 C151.8606,9.333 151.5666,8.761 149.3086,9.6 C147.1016,10.421 146.3416,13.023 147.4526,15.024 Z" id="Stroke-129"></path>
                <path d="M103.15,13.0905 C103.331,12.8835 106.065,11.3455 106.13,11.4535 C107.162,13.1725 102.869,13.6165 102.931,13.3995 C103.004,13.2965 103.077,13.1935 103.15,13.0905 C103.65,12.5175 102.649,13.6635 103.15,13.0905 Z M101.71,14.7825 C102.791,15.8145 105.32,14.6465 106.422,14.0085 C107.614,13.3195 109.515,10.2305 107.218,9.4715 C106.434,9.2135 105.548,10.2935 104.92,10.5955 C104.142,10.9685 103.256,11.0815 102.425,11.2795 C101.027,11.6145 100.754,13.8705 101.71,14.7825 Z" id="Stroke-131"></path>
                <path d="M91.1548,29.447 C91.3358,29.24 94.0698,27.702 94.1348,27.811 C95.1668,29.529 90.8738,29.973 90.9368,29.757 C91.0088,29.654 91.0818,29.551 91.1548,29.447 C91.6558,28.874 90.6538,30.021 91.1548,29.447 Z M89.7158,31.139 C90.7958,32.171 93.3248,31.004 94.4268,30.365 C95.6188,29.676 97.5198,26.588 95.2228,25.829 C94.4388,25.57 93.5528,26.65 92.9248,26.952 C92.1468,27.325 91.2608,27.438 90.4298,27.637 C89.0318,27.971 88.7588,30.227 89.7158,31.139 Z" id="Stroke-133"></path>
                <path d="M196.4908,24.9943 C196.6718,24.7873 199.4058,23.2483 199.4708,23.3573 C200.5038,25.0763 196.2098,25.5203 196.2728,25.3033 C196.3448,25.2003 196.4188,25.0973 196.4908,24.9943 C196.9918,24.4203 195.9898,25.5673 196.4908,24.9943 Z M195.0518,26.6863 C196.1318,27.7183 198.6608,26.5503 199.7638,25.9123 C200.9558,25.2233 202.8558,22.1343 200.5598,21.3753 C199.7748,21.1173 198.8898,22.1973 198.2608,22.4993 C197.4828,22.8723 196.5968,22.9853 195.7668,23.1833 C194.3688,23.5183 194.0958,25.7743 195.0518,26.6863 Z" id="Stroke-135"></path>
                <path d="M98.815,15.9479 C98.853,17.3509 95.594,16.5459 96.244,15.5629 C96.904,14.5639 98.774,14.4179 98.815,15.9479 Z M98.867,13.4769 C97.003,12.7969 95.391,11.8619 94.606,14.0859 C94.131,15.4289 94.507,17.2459 95.728,18.0499 C99.272,20.3849 102.67,14.8639 98.867,13.4769 C97.268,12.8929 100.465,14.0599 98.867,13.4769 Z" id="Stroke-137"></path>
                <path d="M84.6392,27.9431 C84.6772,29.3461 81.4182,28.5401 82.0682,27.5581 C82.7282,26.5591 84.5982,26.4131 84.6392,27.9431 Z M84.6912,25.4711 C82.8272,24.7921 81.2152,23.8571 80.4302,26.0811 C79.9552,27.4241 80.3312,29.2401 81.5522,30.0451 C85.0952,32.3801 88.4942,26.8591 84.6912,25.4711 C83.0922,24.8881 86.2892,26.0541 84.6912,25.4711 Z" id="Stroke-139"></path>
                <path d="M69.3736,24.6716 C69.4116,26.0746 66.1516,25.2696 66.8016,24.2866 C67.4626,23.2876 69.3316,23.1416 69.3736,24.6716 Z M69.4246,22.1996 C67.5616,21.5206 65.9486,20.5856 65.1636,22.8096 C64.6896,24.1526 65.0646,25.9696 66.2856,26.7736 C69.8296,29.1086 73.2286,23.5876 69.4246,22.1996 C67.8256,21.6166 71.0226,22.7836 69.4246,22.1996 Z" id="Stroke-141"></path>
                <path d="M19.2232,22.3156 C19.2612,23.7186 16.0022,22.9126 16.6522,21.9306 C17.3122,20.9316 19.1822,20.7856 19.2232,22.3156 Z M19.2752,19.8436 C17.4112,19.1646 15.7992,18.2296 15.0142,20.4536 C14.5392,21.7956 14.9152,23.6126 16.1362,24.4176 C19.6792,26.7526 23.0782,21.2316 19.2752,19.8436 C17.6762,19.2606 20.8732,20.4266 19.2752,19.8436 Z" id="Stroke-143"></path>
                <path d="M171.1627,20.7697 C170.0777,21.5147 169.1627,19.7247 170.0057,18.9947 C171.0737,18.0707 171.9377,20.2367 171.1627,20.7697 Z M170.9417,22.5197 C173.9887,22.1177 173.2397,17.6407 170.5407,17.1317 C167.0867,16.4807 167.4647,22.9777 170.9417,22.5197 Z" id="Stroke-145"></path>
                <path d="M43.2525,15.7985 C43.3295,15.6425 44.5455,14.6555 44.8025,14.9405 C44.7825,14.9185 44.4295,18.6175 44.4465,18.6035 C44.0995,18.8705 43.4555,16.8955 43.3495,16.7025 C42.8725,15.8415 42.8205,16.6735 43.2525,15.7985 Z M41.0685,15.5645 C40.8585,16.2975 41.3475,16.6685 41.6545,17.2755 C42.4465,18.8315 42.7855,20.5095 44.8195,19.8355 C47.0405,19.0985 46.2705,17.7365 46.5095,15.9785 C46.6135,15.2065 46.8665,14.1735 45.9815,13.6505 C45.2295,13.2055 44.6625,13.9015 43.8655,13.9095 C42.9875,13.9185 41.3445,14.6035 41.0685,15.5645 Z" id="Stroke-147"></path>
                <path d="M164.9351,12.0988 C164.6221,12.6078 162.8721,12.9548 162.3721,12.9428 C161.3891,12.9188 161.2401,12.9618 161.7421,11.8038 C162.5291,9.9898 165.8541,10.6038 164.9351,12.0988 Z M164.6961,8.4118 C161.8431,7.6778 156.8661,14.5498 161.2341,15.1258 C162.8611,15.3408 165.8721,14.2558 166.8821,12.9408 C168.2971,11.0998 166.7441,8.9388 164.6961,8.4118 C163.1421,8.0128 166.2481,8.8118 164.6961,8.4118 Z" id="Stroke-149"></path>
                <path d="M109.5904,34.9392 C109.2784,35.4492 107.5284,35.7962 107.0284,35.7832 C106.0454,35.7592 105.8954,35.8022 106.3984,34.6442 C107.1854,32.8302 110.5094,33.4442 109.5904,34.9392 Z M109.3514,31.2522 C106.4984,30.5192 101.5214,37.3902 105.8904,37.9662 C107.5174,38.1812 110.5274,37.0962 111.5374,35.7812 C112.9524,33.9402 111.3994,31.7792 109.3514,31.2522 C107.7974,30.8532 110.9044,31.6522 109.3514,31.2522 Z" id="Stroke-151"></path>
                <path d="M120.3804,14.9768 C121.5174,14.0858 123.2744,14.3338 121.9294,15.9758 C120.6974,17.4778 118.9954,16.0618 120.3804,14.9768 C120.8354,14.6208 119.9264,15.3328 120.3804,14.9768 Z M121.2684,12.6048 C117.6024,12.8068 116.9924,19.7278 121.2824,18.2508 C124.2984,17.2118 125.2344,12.3878 121.2684,12.6048 C120.0804,12.6708 122.4544,12.5398 121.2684,12.6048 Z" id="Stroke-153"></path>
                <path d="M98.4185,28.154 C99.5555,27.263 101.3125,27.511 99.9675,29.153 C98.7355,30.655 97.0335,29.239 98.4185,28.154 C98.8725,27.798 97.9645,28.51 98.4185,28.154 Z M99.3055,25.782 C95.6405,25.984 95.0305,32.905 99.3195,31.428 C102.3365,30.389 103.2725,25.565 99.3055,25.782 C98.1185,25.847 100.4925,25.717 99.3055,25.782 Z" id="Stroke-155"></path>
                <path d="M142.3306,12.28 C140.4956,12.369 140.9426,9.44 142.5306,10.063 C143.6156,10.488 143.6246,12.217 142.3306,12.28 C140.5726,12.365 144.0886,12.194 142.3306,12.28 Z M143.7956,13.959 C146.0416,11.979 143.9346,7.589 141.0066,8.704 C136.3326,10.484 140.5956,16.781 143.7956,13.959 Z" id="Stroke-157"></path>
                <path d="M188.0103,25.1525 C187.4723,25.5485 187.0843,24.4305 187.5283,24.0785 C187.9793,23.7205 188.3693,24.8885 188.0103,25.1525 Z M188.7243,22.9985 C187.3793,21.2475 184.5913,25.2115 186.6983,26.6195 C188.8823,28.0805 189.8163,24.4195 188.7243,22.9985 C188.2323,22.3575 189.2173,23.6395 188.7243,22.9985 Z" id="Stroke-159"></path>
                <path d="M181.4673,10.9768 C180.9293,11.3728 180.5423,10.2548 180.9853,9.9028 C181.4373,9.5448 181.8263,10.7128 181.4673,10.9768 Z M182.1813,8.8228 C180.8373,7.0718 178.0483,11.0358 180.1553,12.4438 C182.3403,13.9048 183.2733,10.2438 182.1813,8.8228 C181.6893,8.1808 182.6743,9.4638 182.1813,8.8228 Z" id="Stroke-161"></path>
                <path d="M61.5259,20.2888 C62.0469,21.3768 60.4639,21.3998 60.5289,20.8408 C60.6159,20.1078 61.0769,19.3538 61.5259,20.2888 Z M62.6039,21.4088 C63.6689,19.4748 62.2549,17.7468 60.0879,18.3938 C56.7019,19.4058 60.0259,26.0938 62.6039,21.4088 Z" id="Stroke-163"></path>
                <path d="M197.2711,13.0773 C197.7571,12.7723 199.4631,11.1413 199.0641,12.9823 C198.7331,14.5103 195.7391,14.0393 197.2711,13.0773 C198.3311,12.4123 196.2111,13.7433 197.2711,13.0773 Z M196.4721,16.0353 C197.7251,16.6913 198.5311,15.5613 199.3931,14.8603 C201.1971,13.3963 200.7311,12.7023 199.4251,10.7093 C198.0941,8.6783 192.1321,13.7663 196.4721,16.0353 Z" id="Stroke-165"></path>
                <path d="M171.5377,13.883 C172.6917,14.925 168.6677,15.725 169.5367,13.67 C169.5997,13.523 171.3167,13.684 171.5377,13.883 Z M172.7527,12.801 C171.1307,10.016 166.2437,13.357 168.5387,15.718 C169.6817,16.893 171.1417,16.276 172.2597,15.618 C173.7097,14.765 173.6487,14.341 172.7527,12.801 C171.9927,11.496 173.5137,14.106 172.7527,12.801 Z" id="Stroke-167"></path>
                <path d="M136.1265,11.8859 C137.6055,13.3039 135.5225,12.8119 134.7705,12.1609 C133.8945,11.4029 135.6335,11.4139 136.1265,11.8859 Z M135.6345,15.3579 C137.1195,15.8729 137.9055,14.5059 138.2345,13.1429 C138.6365,11.4769 137.1995,9.9689 135.5925,9.5899 C131.4595,8.6159 132.8125,14.3799 135.6345,15.3579 Z" id="Stroke-169"></path>
                <path d="M176.273,3.8566 C177.752,5.2746 175.669,4.7826 174.918,4.1306 C174.042,3.3736 175.781,3.3846 176.273,3.8566 Z M175.782,7.3286 C177.266,7.8426 178.052,6.4766 178.381,5.1136 C178.784,3.4476 177.347,1.9396 175.74,1.5606 C171.607,0.5866 172.96,6.3506 175.782,7.3286 Z" id="Stroke-171"></path>
                <path d="M27.8814,20.3762 C29.3604,21.7942 27.2764,21.3012 26.5254,20.6502 C25.6494,19.8932 27.3884,19.9032 27.8814,20.3762 Z M27.3894,23.8482 C28.8734,24.3622 29.6594,22.9962 29.9884,21.6332 C30.3914,19.9672 28.9544,18.4582 27.3474,18.0792 C23.2144,17.1062 24.5674,22.8702 27.3894,23.8482 Z" id="Stroke-173"></path>
                <path d="M81.3199,6.9196 C81.3289,6.9066 81.8299,8.5736 81.3569,8.5766 C80.6479,8.5816 80.0119,7.9166 80.8549,7.4466 C81.0879,7.3296 81.2429,7.1536 81.3199,6.9196 Z M79.4929,9.6506 C80.3729,10.3456 81.7569,10.1066 82.5079,9.2996 C83.3859,8.3566 83.0599,7.5876 82.4009,6.4106 C81.0219,3.9456 76.8009,7.5276 79.4929,9.6506 Z" id="Stroke-175"></path>
            </g>
        </g>
    </g>
</svg>