<?xml version="1.0" encoding="UTF-8"?>
<svg width="573px" height="372px" viewBox="0 0 573 372" version="1.1" xmlns="http://www.w3.org/2000/svg" xmlns:xlink="http://www.w3.org/1999/xlink">
    <!-- Generator: Sketch 43.2 (39069) - http://www.bohemiancoding.com/sketch -->
    <title>Artboard</title>
    <desc>Created with Sketch.</desc>
    <defs></defs>
    <g id="Page-1" stroke="none" stroke-width="1" fill="none" fill-rule="evenodd">
        <g id="Artboard">
            <g id="mao" transform="translate(265.000000, 159.000000)" stroke="#FFFFFF" stroke-width="3" stroke-linecap="round">
                <polyline id="Stroke-1" stroke-linejoin="round" points="20.15625 17.4722222 45 24.8101987 45 51.2026799 38.2464784 61.4713287 38.2464784 67.5277778"></polyline>
                <polyline id="Stroke-3" stroke-linejoin="round" points="8.90625 68 8.90625 61.8683587 0 51.4722222"></polyline>
                <path d="M9.375,38.7222222 L9.375,5.13040201 C9.375,2.29636794 11.6829375,0 14.53125,0 C17.3785312,0 19.6875,2.29636794 19.6875,5.13040201 L19.6875,29.5603503" id="Stroke-5"></path>
                <path d="M28,19.8333333 L28,31.6388889" id="Stroke-7"></path>
                <path d="M36,34.4722222 L36,22.6666667" id="Stroke-9"></path>
                <path d="M0,51 L0,36.8657123 C0,32.6749036 3.43063187,29.2777778 7.66174451,29.2777778 L9.375,29.2777778" id="Stroke-11"></path>
            </g>
            <path d="M261,170 L261,163.434312 C261,153.253451 269.282861,145 279.5,145 C289.717139,145 298,153.253451 298,163.434312 L298,168.682971" id="touch" stroke="#FFFFFF" stroke-width="3" stroke-linecap="round"></path>
            <path d="M159.848,267.376 L159.848,281.272 C159.864,281.688002 160.019999,282.039999 160.316,282.328 C160.612001,282.616001 160.967998,282.76 161.384,282.76 L161.696,282.76 L161.696,283 L153.08,283 L153.08,282.76 L153.392,282.76 C153.808002,282.76 154.163999,282.616001 154.46,282.328 C154.756001,282.039999 154.912,281.696002 154.928,281.296 L154.928,267.376 L152.552,267.376 C151.591995,267.392 150.840003,267.675997 150.296,268.228 C149.751997,268.780003 149.48,269.535995 149.48,270.496 L149.48,270.664 L149.24,270.688 L149.24,265.744 C149.464001,265.84 149.867997,265.936 150.452,266.032 C151.036003,266.128 151.575998,266.176 152.072,266.176 L162.704,266.176 C163.200002,266.176 163.735997,266.128 164.312,266.032 C164.888003,265.936 165.295999,265.84 165.536,265.744 L165.536,270.688 L165.296,270.664 L165.296,270.496 C165.296,269.199994 164.816005,268.288003 163.856,267.76 C163.391998,267.519999 162.840003,267.392 162.2,267.376 L159.848,267.376 Z M168.668,270.28 C170.212008,268.967993 172.355986,268.312 175.1,268.312 C177.844014,268.312 179.987992,268.967993 181.532,270.28 C183.076008,271.592007 183.848,273.431988 183.848,275.8 C183.848,278.168012 183.076008,280.007993 181.532,281.32 C179.987992,282.632007 177.844014,283.288 175.1,283.288 C172.355986,283.288 170.212008,282.632007 168.668,281.32 C167.123992,280.007993 166.352,278.168012 166.352,275.8 C166.352,273.431988 167.123992,271.592007 168.668,270.28 Z M172.232,280.54 C172.888003,281.652006 173.839994,282.208 175.088,282.208 C176.336006,282.208 177.287997,281.652006 177.944,280.54 C178.600003,279.427994 178.928,277.85601 178.928,275.824 C178.928,273.055986 178.352006,271.168005 177.2,270.16 C176.623997,269.647997 175.920004,269.392 175.088,269.392 C173.839994,269.392 172.888003,269.947994 172.232,271.06 C171.575997,272.172006 171.248,273.75199 171.248,275.8 C171.248,277.84801 171.575997,279.427994 172.232,280.54 Z M211.76,284.224 L211.904,284.296 L211.904,284.464 C211.904,286.048008 211.416005,287.303995 210.44,288.232 C209.495995,289.112004 208.216008,289.552 206.6,289.552 C204.775991,289.552 202.808011,288.936006 200.696,287.704 C199.655995,287.111997 198.544006,286.312005 197.36,285.304 C196.303995,284.391995 195.520003,283.828001 195.008,283.612 C194.495997,283.395999 194.024002,283.288 193.592,283.288 L193.52,283.288 C190.847987,283.288 188.768007,282.632007 187.28,281.32 C185.791993,280.007993 185.048,278.168012 185.048,275.8 C185.048,273.431988 185.795993,271.592007 187.292,270.28 C188.788007,268.967993 190.875987,268.312 193.556,268.312 C196.236013,268.312 198.323993,268.967993 199.82,270.28 C201.316007,271.592007 202.064,273.439988 202.064,275.824 C202.064,278.128012 201.352007,279.927994 199.928,281.224 C199.239997,281.864003 198.392005,282.359998 197.384,282.712 C198.504006,282.872001 199.447996,283.083999 200.216,283.348 C200.984004,283.612001 201.983994,283.967998 203.216,284.416 C206.832018,285.744007 209.67999,285.680007 211.76,284.224 Z M190.88,271.06 C190.271997,272.172006 189.968,273.75599 189.968,275.812 C189.968,277.86801 190.271997,279.447994 190.88,280.552 C191.488003,281.656006 192.379994,282.208 193.556,282.208 C194.732006,282.208 195.623997,281.656006 196.232,280.552 C196.840003,279.447994 197.144,277.87201 197.144,275.824 C197.144,272.671984 196.472007,270.672004 195.128,269.824 C194.663998,269.535999 194.136003,269.392 193.544,269.392 C192.375994,269.392 191.488003,269.947994 190.88,271.06 Z M219.416,268.792 L219.104,268.792 C218.815999,268.792 218.568001,268.891999 218.36,269.092 C218.151999,269.292001 218.048,269.535999 218.048,269.824 L218.048,277.648 C218.048,279.424009 217.520005,280.807995 216.464,281.8 C215.407995,282.792005 213.90401,283.288 211.952,283.288 C206.991975,283.288 204.512,281.424019 204.512,277.696 L204.512,269.824 C204.512,269.359998 204.296002,269.040001 203.864,268.864 C203.735999,268.816 203.600001,268.792 203.456,268.792 L203.144,268.792 L203.144,268.6 L210.584,268.6 L210.584,268.792 L210.248,268.792 C209.959999,268.792 209.716001,268.887999 209.516,269.08 C209.315999,269.272001 209.216,269.519998 209.216,269.824 L209.216,277.648 C209.216,279.56801 209.751995,280.887996 210.824,281.608 C211.352003,281.960002 211.983996,282.136 212.72,282.136 C213.808005,282.136 214.647997,281.768004 215.24,281.032 C215.832003,280.295996 216.136,279.256007 216.152,277.912 L216.152,269.824 C216.136,269.519998 216.028001,269.272001 215.828,269.08 C215.627999,268.887999 215.384001,268.792 215.096,268.792 L214.784,268.792 L214.784,268.6 L219.416,268.6 L219.416,268.792 Z M220.184,283 L220.184,282.76 L220.448,282.76 C220.784002,282.76 221.039999,282.672001 221.216,282.496 C221.536002,282.191998 221.696,281.864002 221.696,281.512 L221.696,270.112 C221.696,269.743998 221.572001,269.440001 221.324,269.2 C221.075999,268.959999 220.784002,268.84 220.448,268.84 L220.184,268.84 L220.184,268.6 L229.544,268.6 C229.944002,268.6 230.391998,268.56 230.888,268.48 C231.384002,268.4 231.727999,268.32 231.92,268.24 L231.92,272.776 L231.68,272.776 L231.68,272.656 C231.68,271.727995 231.436002,271.008003 230.948,270.496 C230.459998,269.983997 229.768004,269.72 228.872,269.704 L226.4,269.704 L226.4,275.344 L228.248,275.344 C228.952004,275.328 229.523998,275.092002 229.964,274.636 C230.404002,274.179998 230.624,273.592004 230.624,272.872 L230.624,272.824 L230.864,272.824 L230.864,279.016 L230.624,279.016 L230.624,278.92 C230.624,278.215996 230.404002,277.632002 229.964,277.168 C229.523998,276.703998 228.952004,276.472 228.248,276.472 L226.4,276.472 L226.4,281.896 L228.704,281.896 C229.664005,281.896 230.535996,281.544004 231.32,280.84 C232.104004,280.135996 232.639999,279.176006 232.928,277.96 L233.144,277.96 L232.472,283 L220.184,283 Z M246.848,276.232 L246.848,276.04 C247.424003,275.96 247.911998,275.520004 248.312,274.72 C248.632002,274.063997 248.792,273.336004 248.792,272.536 C248.792,271.351994 248.424004,270.512002 247.688,270.016 C247.351998,269.791999 246.952002,269.68 246.488,269.68 L246.2,269.68 L246.2,281.512 C246.216,281.880002 246.335999,282.179999 246.56,282.412 C246.784001,282.644001 247.079998,282.76 247.448,282.76 L247.688,282.76 L247.688,283 L240.008,283 L240.008,282.76 L240.272,282.76 C240.608002,282.76 240.895999,282.640001 241.136,282.4 C241.376001,282.159999 241.496,281.864002 241.496,281.512 L241.496,270.064 C241.48,269.711998 241.352001,269.420001 241.112,269.188 C240.871999,268.955999 240.584002,268.84 240.248,268.84 L239.984,268.84 L239.984,268.6 L248.048,268.6 C250.336011,268.6 251.935995,269.151994 252.848,270.256 C253.408003,270.944003 253.688,271.807995 253.688,272.848 C253.688,273.472003 253.572001,274.087997 253.34,274.696 C253.107999,275.304003 252.752002,275.807998 252.272,276.208 C251.439996,276.912004 250.544005,277.264 249.584,277.264 C248.623995,277.264 247.712004,276.920003 246.848,276.232 Z M270.104,282.76 L270.296,282.76 L270.296,283 L261.848,283 L261.848,282.76 L262.04,282.76 C262.360002,282.76 262.595999,282.676001 262.748,282.508 C262.900001,282.339999 262.976,282.180001 262.976,282.028 C262.976,281.875999 262.936,281.712001 262.856,281.536 L262.16,279.952 L257.72,279.952 L257,281.608 C256.936,281.752001 256.904,281.895999 256.904,282.04 C256.904,282.184001 256.979999,282.339999 257.132,282.508 C257.284001,282.676001 257.519998,282.76 257.84,282.76 L258.008,282.76 L258.008,283 L253.064,283 L253.064,282.76 L253.256,282.76 C253.592002,282.76 253.931998,282.664001 254.276,282.472 C254.620002,282.279999 254.887999,281.984002 255.08,281.584 L260.024,270.928 C260.808004,269.215991 261.224,268.152002 261.272,267.736 L261.464,267.736 L268.232,281.536 C268.648002,282.352004 269.271996,282.76 270.104,282.76 Z M258.176,278.872 L261.68,278.872 L259.928,274.84 L258.176,278.872 Z M283.712,272.56 C283.712,273.392004 283.512002,274.159996 283.112,274.864 C282.647998,275.680004 281.824006,276.191999 280.64,276.4 C281.200003,276.544001 281.715998,276.827998 282.188,277.252 C282.660002,277.676002 282.971999,278.023999 283.124,278.296 C283.276001,278.568001 283.431999,278.871998 283.592,279.208 C284.536005,281.048009 285.279997,282.143998 285.824,282.496 C286.112001,282.672001 286.471998,282.76 286.904,282.76 L286.904,283 L284.072,283 C282.487992,283 281.456002,282.896001 280.976,282.688 C280.319997,282.399999 279.844001,282.076002 279.548,281.716 C279.251999,281.355998 278.968001,280.936002 278.696,280.456 C278.263998,279.719996 277.912001,278.672007 277.64,277.312 C277.479999,276.591996 277.216002,276.136001 276.848,275.944 L276.848,275.752 L276.968,275.752 C277.416002,275.752 277.807998,275.548002 278.144,275.14 C278.480002,274.731998 278.696,274.064005 278.792,273.136 L278.792,272.992 C278.872,272.271996 278.808001,271.676002 278.6,271.204 C278.391999,270.731998 278.208001,270.416001 278.048,270.256 C277.887999,270.095999 277.680001,269.976 277.424,269.896 C277.151999,269.8 276.904001,269.752 276.68,269.752 L276.2,269.752 L276.2,281.512 C276.2,281.912002 276.331999,282.219999 276.596,282.436 C276.860001,282.652001 277.151998,282.76 277.472,282.76 L277.688,282.76 L277.688,283 L269.984,283 L269.984,282.76 L270.248,282.76 C270.584002,282.76 270.871999,282.640001 271.112,282.4 C271.352001,282.159999 271.472,281.864002 271.472,281.512 L271.472,270.088 C271.472,269.735998 271.356001,269.440001 271.124,269.2 C270.891999,268.959999 270.608002,268.84 270.272,268.84 L269.984,268.84 L269.984,268.6 L278.24,268.6 C281.888018,268.6 283.712,269.919987 283.712,272.56 Z M301.544,282.76 L301.736,282.76 L301.736,283 L293.288,283 L293.288,282.76 L293.48,282.76 C293.800002,282.76 294.035999,282.676001 294.188,282.508 C294.340001,282.339999 294.416,282.180001 294.416,282.028 C294.416,281.875999 294.376,281.712001 294.296,281.536 L293.6,279.952 L289.16,279.952 L288.44,281.608 C288.376,281.752001 288.344,281.895999 288.344,282.04 C288.344,282.184001 288.419999,282.339999 288.572,282.508 C288.724001,282.676001 288.959998,282.76 289.28,282.76 L289.448,282.76 L289.448,283 L284.504,283 L284.504,282.76 L284.696,282.76 C285.032002,282.76 285.371998,282.664001 285.716,282.472 C286.060002,282.279999 286.327999,281.984002 286.52,281.584 L291.464,270.928 C292.248004,269.215991 292.664,268.152002 292.712,267.736 L292.904,267.736 L299.672,281.536 C300.088002,282.352004 300.711996,282.76 301.544,282.76 Z M289.616,278.872 L293.12,278.872 L291.368,274.84 L289.616,278.872 Z M309.632,281.32 C308.015992,280.023994 307.208,278.188012 307.208,275.812 C307.208,273.435988 308.007992,271.592007 309.608,270.28 C311.208008,268.967993 313.455986,268.312 316.352,268.312 C318.38401,268.312 320.127993,268.599997 321.584,269.176 L321.272,273.256 L321.104,273.256 C320.687998,271.847993 320.124004,270.852003 319.412,270.268 C318.699996,269.683997 317.816005,269.392 316.76,269.392 C315.175992,269.392 314.004004,269.955994 313.244,271.084 C312.483996,272.212006 312.104,273.75199 312.104,275.704 C312.104,277.65601 312.471996,279.207994 313.208,280.36 C313.944004,281.544006 314.991993,282.16 316.352,282.208 C317.472006,282.208 318.319997,282.040002 318.896,281.704 C319.520003,281.351998 319.991998,280.808004 320.312,280.072 C320.616002,279.367996 320.911999,278.344007 321.2,277 L321.368,277 L321.992,280.84 C321.031995,282.472008 319.136014,283.284 316.304,283.276 C313.471986,283.268 311.248008,282.616006 309.632,281.32 Z M325.604,270.28 C327.148008,268.967993 329.291986,268.312 332.036,268.312 C334.780014,268.312 336.923992,268.967993 338.468,270.28 C340.012008,271.592007 340.784,273.431988 340.784,275.8 C340.784,278.168012 340.012008,280.007993 338.468,281.32 C336.923992,282.632007 334.780014,283.288 332.036,283.288 C329.291986,283.288 327.148008,282.632007 325.604,281.32 C324.059992,280.007993 323.288,278.168012 323.288,275.8 C323.288,273.431988 324.059992,271.592007 325.604,270.28 Z M329.168,280.54 C329.824003,281.652006 330.775994,282.208 332.024,282.208 C333.272006,282.208 334.223997,281.652006 334.88,280.54 C335.536003,279.427994 335.864,277.85601 335.864,275.824 C335.864,273.055986 335.288006,271.168005 334.136,270.16 C333.559997,269.647997 332.856004,269.392 332.024,269.392 C330.775994,269.392 329.824003,269.947994 329.168,271.06 C328.511997,272.172006 328.184,273.75199 328.184,275.8 C328.184,277.84801 328.511997,279.427994 329.168,280.54 Z M354.584,283 L354.584,282.76 L354.92,282.76 C355.208001,282.76 355.415999,282.660001 355.544,282.46 C355.672001,282.259999 355.728,282.056001 355.712,281.848 L354.92,276.472 L351.608,281.104 C351.367999,281.440002 351.160001,281.831998 350.984,282.28 C350.807999,282.728002 350.72,283.035999 350.72,283.204 L350.72,283.528 L350.528,283.528 L345.128,276.808 L344.48,281.848 C344.464,282.008001 344.504,282.167999 344.6,282.328 C344.760001,282.616001 344.983999,282.76 345.272,282.76 L345.608,282.76 L345.608,283 L340.952,283 L340.952,282.76 L341.264,282.76 C341.664002,282.76 342.007999,282.652001 342.296,282.436 C342.584001,282.219999 342.752,281.912002 342.8,281.512 L344.672,268.312 L344.864,268.312 L352.016,277.312 L358.424,268.312 L358.64,268.312 L360.56,281.632 C360.656,281.984002 360.835999,282.259999 361.1,282.46 C361.364001,282.660001 361.671998,282.76 362.024,282.76 L362.36,282.76 L362.36,283 L354.584,283 Z M362.384,283 L362.384,282.76 L362.648,282.76 C362.984002,282.76 363.239999,282.672001 363.416,282.496 C363.736002,282.191998 363.896,281.864002 363.896,281.512 L363.896,270.112 C363.896,269.743998 363.772001,269.440001 363.524,269.2 C363.275999,268.959999 362.984002,268.84 362.648,268.84 L362.384,268.84 L362.384,268.6 L371.744,268.6 C372.144002,268.6 372.591998,268.56 373.088,268.48 C373.584002,268.4 373.927999,268.32 374.12,268.24 L374.12,272.776 L373.88,272.776 L373.88,272.656 C373.88,271.727995 373.636002,271.008003 373.148,270.496 C372.659998,269.983997 371.968004,269.72 371.072,269.704 L368.6,269.704 L368.6,275.344 L370.448,275.344 C371.152004,275.328 371.723998,275.092002 372.164,274.636 C372.604002,274.179998 372.824,273.592004 372.824,272.872 L372.824,272.824 L373.064,272.824 L373.064,279.016 L372.824,279.016 L372.824,278.92 C372.824,278.215996 372.604002,277.632002 372.164,277.168 C371.723998,276.703998 371.152004,276.472 370.448,276.472 L368.6,276.472 L368.6,281.896 L370.904,281.896 C371.864005,281.896 372.735996,281.544004 373.52,280.84 C374.304004,280.135996 374.839999,279.176006 375.128,277.96 L375.344,277.96 L374.672,283 L362.384,283 Z M384.44,284.368 C384.664001,284.288 384.855999,284.248 385.016,284.248 L385.508,284.248 C385.676001,284.248 385.919998,284.292 386.24,284.38 C386.560002,284.468 386.815999,284.631999 387.008,284.872 C387.200001,285.112001 387.296,285.327999 387.296,285.52 C387.296,286.256004 387.040003,286.839998 386.528,287.272 C385.855997,287.848003 385.056005,288.136 384.128,288.136 C383.679998,288.136 383.224002,288.064001 382.76,287.92 L382.784,287.68 C383.360003,287.68 383.919997,287.516002 384.464,287.188 C385.008003,286.859998 385.28,286.376003 385.28,285.736 C385.28,285.479999 385.152001,285.256001 384.896,285.064 C384.399998,284.727998 383.744004,284.687999 382.928,284.944 L382.808,284.704 L383.96,283.216 C381.527988,283.007999 379.632007,282.264006 378.272,280.984 C376.911993,279.703994 376.232,277.928011 376.232,275.656 C376.232,273.383989 377.031992,271.592007 378.632,270.28 C380.232008,268.967993 382.479986,268.312 385.376,268.312 C387.40801,268.312 389.151993,268.599997 390.608,269.176 L390.296,273.256 L390.128,273.256 C389.711998,271.847993 389.148004,270.852003 388.436,270.268 C387.723996,269.683997 386.840005,269.392 385.784,269.392 C384.199992,269.392 383.028004,269.955994 382.268,271.084 C381.507996,272.212006 381.128,273.75599 381.128,275.716 C381.128,277.67601 381.499996,279.235994 382.244,280.396 C382.988004,281.556006 384.031993,282.16 385.376,282.208 C386.496006,282.208 387.343997,282.040002 387.92,281.704 C388.544003,281.351998 389.015998,280.808004 389.336,280.072 C389.640002,279.367996 389.935999,278.344007 390.224,277 L390.392,277 L391.016,280.84 C390.055995,282.472008 388.176014,283.288 385.376,283.288 L384.44,284.368 Z M407.768,282.76 L407.96,282.76 L407.96,283 L399.512,283 L399.512,282.76 L399.704,282.76 C400.024002,282.76 400.259999,282.676001 400.412,282.508 C400.564001,282.339999 400.64,282.180001 400.64,282.028 C400.64,281.875999 400.6,281.712001 400.52,281.536 L399.824,279.952 L395.384,279.952 L394.664,281.608 C394.6,281.752001 394.568,281.895999 394.568,282.04 C394.568,282.184001 394.643999,282.339999 394.796,282.508 C394.948001,282.676001 395.183998,282.76 395.504,282.76 L395.672,282.76 L395.672,283 L390.728,283 L390.728,282.76 L390.92,282.76 C391.256002,282.76 391.595998,282.664001 391.94,282.472 C392.284002,282.279999 392.551999,281.984002 392.744,281.584 L397.688,270.928 C398.472004,269.215991 398.888,268.152002 398.936,267.736 L399.128,267.736 L405.896,281.536 C406.312002,282.352004 406.935996,282.76 407.768,282.76 Z M395.84,278.872 L399.344,278.872 L397.592,274.84 L395.84,278.872 Z M421.376,272.56 C421.376,273.392004 421.176002,274.159996 420.776,274.864 C420.311998,275.680004 419.488006,276.191999 418.304,276.4 C418.864003,276.544001 419.379998,276.827998 419.852,277.252 C420.324002,277.676002 420.635999,278.023999 420.788,278.296 C420.940001,278.568001 421.095999,278.871998 421.256,279.208 C422.200005,281.048009 422.943997,282.143998 423.488,282.496 C423.776001,282.672001 424.135998,282.76 424.568,282.76 L424.568,283 L421.736,283 C420.151992,283 419.120002,282.896001 418.64,282.688 C417.983997,282.399999 417.508001,282.076002 417.212,281.716 C416.915999,281.355998 416.632001,280.936002 416.36,280.456 C415.927998,279.719996 415.576001,278.672007 415.304,277.312 C415.143999,276.591996 414.880002,276.136001 414.512,275.944 L414.512,275.752 L414.632,275.752 C415.080002,275.752 415.471998,275.548002 415.808,275.14 C416.144002,274.731998 416.36,274.064005 416.456,273.136 L416.456,272.992 C416.536,272.271996 416.472001,271.676002 416.264,271.204 C416.055999,270.731998 415.872001,270.416001 415.712,270.256 C415.551999,270.095999 415.344001,269.976 415.088,269.896 C414.815999,269.8 414.568001,269.752 414.344,269.752 L413.864,269.752 L413.864,281.512 C413.864,281.912002 413.995999,282.219999 414.26,282.436 C414.524001,282.652001 414.815998,282.76 415.136,282.76 L415.352,282.76 L415.352,283 L407.648,283 L407.648,282.76 L407.912,282.76 C408.248002,282.76 408.535999,282.640001 408.776,282.4 C409.016001,282.159999 409.136,281.864002 409.136,281.512 L409.136,270.088 C409.136,269.735998 409.020001,269.440001 408.788,269.2 C408.555999,268.959999 408.272002,268.84 407.936,268.84 L407.648,268.84 L407.648,268.6 L415.904,268.6 C419.552018,268.6 421.376,269.919987 421.376,272.56 Z" id="Toque-para-começar" fill="#FFFFFF"></path>
        </g>
    </g>
</svg>