<?xml version="1.0" encoding="UTF-8"?>
<svg width="300px" height="100px" viewBox="0 0 300 100" version="1.1" xmlns="http://www.w3.org/2000/svg" xmlns:xlink="http://www.w3.org/1999/xlink">
    <!-- Generator: Sketch 43.2 (39069) - http://www.bohemiancoding.com/sketch -->
    <title>tab-ucs</title>
    <desc>Created with Sketch.</desc>
    <defs></defs>
    <g id="Page-1" stroke="none" stroke-width="1" fill="none" fill-rule="evenodd">
        <g id="tab-ucs" fill="#00355F">
            <g id="Page-1" transform="translate(40.000000, 21.000000)">
                <path d="M15.0114,0.7114 C15.3174,0.9884 15.4714,1.3444 15.4714,1.7784 L15.4714,13.1634 C15.4714,15.7324 16.3504,17.7094 18.1094,19.0924 C19.8684,20.4764 22.5164,21.1684 26.0554,21.1684 C28.8814,21.1684 31.0704,20.4564 32.6214,19.0334 C34.1734,17.6104 34.9484,15.6444 34.9484,13.1334 L34.9484,1.6904 C34.9684,1.2944 35.1314,0.9634 35.4384,0.6964 C35.7444,0.4294 36.1054,0.2964 36.5204,0.2964 L36.9944,0.2964 L36.9944,0.0004 L30.3244,0.0004 L30.3244,0.2964 L30.7984,0.2964 C31.2334,0.2964 31.5994,0.4294 31.8954,0.6964 C32.1924,0.9634 32.3504,1.3044 32.3694,1.7194 L32.3694,13.4304 C32.3694,15.3864 31.8904,16.9134 30.9324,18.0104 C29.9734,19.1074 28.6444,19.6554 26.9444,19.6554 C25.2434,19.6554 23.9204,19.0734 22.9714,17.9064 C22.0234,16.7404 21.5484,15.1204 21.5484,13.0444 L21.5484,1.7194 C21.5684,1.3044 21.7264,0.9634 22.0234,0.6964 C22.3194,0.4294 22.6854,0.2964 23.1194,0.2964 L23.5944,0.2964 L23.5944,0.0004 L13.4254,0.0004 L13.4254,0.2964 L13.8994,0.2964 C14.3334,0.2964 14.7044,0.4354 15.0114,0.7114" id="Fill-1"></path>
                <path d="M47.4314,20.4565 L46.9564,20.4565 C46.5014,20.4565 46.1214,20.3135 45.8154,20.0265 C45.5084,19.7405 45.3454,19.3895 45.3264,18.9745 L45.3264,10.6435 L57.7784,21.1085 L58.0444,21.1085 L57.9554,20.7825 C57.7784,20.1305 57.6894,19.1625 57.6894,17.8765 L57.6894,4.7135 C57.6894,4.2985 57.8464,3.9535 58.1624,3.6765 C58.4794,3.3995 58.8654,3.2615 59.3194,3.2615 L59.8234,3.2615 L59.8234,2.9645 L49.7444,2.9645 L49.7444,3.2615 L50.2474,3.2615 C50.7024,3.2615 51.0814,3.4045 51.3884,3.6905 C51.6954,3.9775 51.8484,4.3285 51.8484,4.7435 L51.8484,13.0745 L39.4264,2.5795 L39.1594,2.5795 L39.2484,2.9055 C39.4264,3.5975 39.5154,4.5365 39.5154,5.7215 L39.5154,18.9745 C39.5154,19.3895 39.3574,19.7405 39.0404,20.0265 C38.7244,20.3135 38.3384,20.4565 37.8844,20.4565 L37.4104,20.4565 L37.4104,20.7525 L47.4314,20.7525 L47.4314,20.4565 Z" id="Fill-3"></path>
                <path d="M70.2888,20.4565 L69.9628,20.4565 C69.5478,20.4565 69.1908,20.3085 68.8948,20.0115 C68.5988,19.7155 68.4398,19.3495 68.4208,18.9145 L68.4208,4.8025 C68.4398,4.5065 68.5188,4.2395 68.6578,4.0025 C68.9348,3.5085 69.3698,3.2615 69.9628,3.2615 L70.2588,3.2615 L70.2588,2.9645 L60.7718,2.9645 L60.7718,3.2615 L61.0978,3.2615 C61.5128,3.2615 61.8688,3.4095 62.1648,3.7065 C62.4618,4.0025 62.6098,4.3685 62.6098,4.8025 L62.6098,18.9145 C62.6098,19.3495 62.4618,19.7155 62.1648,20.0115 C61.8688,20.3085 61.5128,20.4565 61.0978,20.4565 L60.7718,20.4565 L60.7718,20.7525 L70.2888,20.7525 L70.2888,20.4565 Z" id="Fill-5"></path>
                <path d="M84.4294,17.4028 C83.5204,18.7268 82.2754,19.3888 80.6944,19.3888 L79.0044,19.3888 L79.0044,4.2988 L80.6944,4.2988 C81.7414,4.2988 82.6514,4.5948 83.4214,5.1878 C85.0024,6.4338 85.7934,8.6568 85.7934,11.8588 C85.7934,14.2308 85.3384,16.0788 84.4294,17.4028 M89.0834,5.3068 C87.2264,3.7458 84.6164,2.9648 81.2574,2.9648 L71.1474,2.9648 L71.1474,3.2608 L71.5034,3.2608 C71.9574,3.2608 72.3434,3.4048 72.6594,3.6908 C72.9754,3.9778 73.1534,4.3388 73.1934,4.7728 L73.1934,18.8558 C73.1934,19.2908 73.0304,19.6658 72.7034,19.9818 C72.3774,20.2988 71.9874,20.4568 71.5334,20.4568 L71.1774,20.4568 L71.1774,20.7528 L81.2574,20.7528 C84.6164,20.7528 87.2264,19.9778 89.0834,18.4258 C90.9424,16.8738 91.8704,14.6898 91.8704,11.8738 C91.8704,9.0568 90.9424,6.8678 89.0834,5.3068" id="Fill-7"></path>
                <path d="M99.4021,10.6728 L101.5661,15.6538 L97.2381,15.6538 L99.4021,10.6728 Z M119.2651,4.2988 L120.9551,4.2988 C122.0021,4.2988 122.9121,4.5948 123.6821,5.1878 C125.2631,6.4338 126.0541,8.6568 126.0541,11.8588 C126.0541,14.2308 125.5991,16.0788 124.6901,17.4028 C123.7811,18.7268 122.5361,19.3888 120.9551,19.3888 L119.2651,19.3888 L119.2651,4.2988 Z M90.9231,20.4568 L90.9231,20.7528 L97.0301,20.7528 L97.0301,20.4568 L96.8231,20.4568 C96.4271,20.4568 96.1351,20.3528 95.9481,20.1448 C95.7601,19.9378 95.6671,19.7448 95.6671,19.5668 C95.6671,19.3888 95.7061,19.2118 95.7851,19.0328 L96.6741,16.9878 L102.1591,16.9878 L103.0191,18.9438 C103.1181,19.1618 103.1671,19.3648 103.1671,19.5518 C103.1671,19.7398 103.0731,19.9378 102.8851,20.1448 C102.6971,20.3528 102.4061,20.4568 102.0101,20.4568 L101.7741,20.4568 L101.7741,20.7528 L111.4381,20.7528 L112.2101,20.7528 L121.5181,20.7528 C124.8781,20.7528 127.4871,19.9778 129.3441,18.4258 C131.2031,16.8738 132.1311,14.6898 132.1311,11.8738 C132.1311,9.0568 131.2031,6.8678 129.3441,5.3068 C127.4871,3.7458 124.8781,2.9648 121.5181,2.9648 L111.4081,2.9648 L111.4081,3.2608 L111.7641,3.2608 C112.2181,3.2608 112.6041,3.4048 112.9211,3.6908 C113.2361,3.9778 113.4141,4.3388 113.4541,4.7728 L113.4541,18.8558 C113.4541,19.2908 113.2911,19.6658 112.9651,19.9818 C112.6651,20.2728 112.3071,20.4238 111.8991,20.4468 C110.9101,20.4228 110.1611,19.9268 109.6601,18.9438 L101.2991,1.8978 L101.0621,1.8978 C101.0031,2.4118 100.4891,3.7258 99.5201,5.8398 L93.4131,19.0038 C93.1761,19.4978 92.8441,19.8628 92.4201,20.1008 C91.9951,20.3378 91.5751,20.4568 91.1601,20.4568 L90.9231,20.4568 Z" id="Fill-9"></path>
                <path d="M149.1784,14.5269 L148.9114,14.5269 C148.5564,16.0289 147.8934,17.2149 146.9254,18.0849 C145.9564,18.9549 144.8794,19.3889 143.6944,19.3889 L140.8474,19.3889 L140.8474,12.6889 L143.1304,12.6889 C143.9994,12.6889 144.7064,12.9759 145.2504,13.5489 C145.7934,14.1219 146.0664,14.8429 146.0664,15.7129 L146.0664,15.8319 L146.3624,15.8319 L146.3624,8.1829 L146.0664,8.1829 L146.0664,8.2419 C146.0664,9.1309 145.7934,9.8579 145.2504,10.4209 C144.7064,10.9849 143.9994,11.2759 143.1304,11.2959 L140.8474,11.2959 L140.8474,4.3289 L143.9014,4.3289 C145.0084,4.3479 145.8634,4.6739 146.4654,5.3069 C147.0694,5.9399 147.3694,6.8289 147.3694,7.9749 L147.3694,8.1229 L147.6664,8.1229 L147.6664,2.5199 C147.4294,2.6189 147.0044,2.7179 146.3924,2.8169 C145.7794,2.9159 145.2254,2.9649 144.7314,2.9649 L133.1694,2.9649 L133.1694,3.2609 L133.4944,3.2609 C133.9094,3.2609 134.2714,3.4089 134.5774,3.7059 C134.8834,4.0029 135.0364,4.3779 135.0364,4.8329 L135.0364,18.9149 C135.0364,19.3499 134.8394,19.7549 134.4444,20.1309 C134.2264,20.3479 133.9094,20.4569 133.4944,20.4569 L133.1694,20.4569 L133.1694,20.7529 L148.3484,20.7529 L149.1784,14.5269 Z" id="Fill-11"></path>
                <path d="M153.0769,20.6196 C154.0559,20.9456 155.2749,21.1086 156.7379,21.1086 C159.1889,21.1086 161.1059,20.6246 162.4899,19.6556 C164.0519,18.5696 164.8319,16.9386 164.8319,14.7646 C164.8319,13.7166 164.5649,12.7876 164.0319,11.9776 C163.4979,11.1666 162.7079,10.5346 161.6599,10.0796 L157.8359,8.3306 C157.1039,8.0346 156.5309,7.7476 156.1159,7.4716 C155.5819,7.0956 155.3459,6.5916 155.4039,5.9586 C155.5429,4.6546 156.6199,4.0026 158.6359,4.0026 C159.6829,4.0026 160.5569,4.2936 161.2599,4.8766 C161.9609,5.4596 162.3119,6.2356 162.3119,7.2036 L162.4899,7.2036 L163.2019,2.8756 L161.2159,2.8756 C159.3379,2.6976 157.8459,2.6086 156.7379,2.6086 C153.4179,2.6086 151.5399,4.1406 151.1049,7.2036 C151.0649,7.5206 151.0469,7.8366 151.0469,8.1526 C151.0469,9.1016 151.2729,9.9716 151.7279,10.7616 C152.3209,11.7896 153.2499,12.5706 154.5149,13.1036 L157.6279,14.5566 C158.6759,15.0116 159.4309,15.4656 159.8959,15.9206 C160.3599,16.3756 160.5929,16.8986 160.5929,17.4916 C160.5929,18.0846 160.3359,18.6086 159.8219,19.0626 C159.3069,19.5176 158.5469,19.7446 157.5389,19.7446 C155.8389,19.7446 154.5049,19.2216 153.5369,18.1736 C152.5879,17.1266 152.1129,15.9406 152.1129,14.6166 L152.1129,14.3486 L151.9349,14.3486 C151.4619,14.9416 151.1149,15.7626 150.8979,16.8096 C150.8189,17.2246 150.7789,17.6596 150.7789,18.1146 C150.7789,18.5696 150.8679,19.0036 151.0469,19.4186 C151.4219,19.8926 152.0979,20.2936 153.0769,20.6196" id="Fill-13"></path>
                <path d="M181.6726,4.2988 L183.3616,4.2988 C184.4086,4.2988 185.3186,4.5948 186.0896,5.1878 C187.6706,6.4338 188.4616,8.6568 188.4616,11.8588 C188.4616,14.2308 188.0066,16.0788 187.0976,17.4028 C186.1886,18.7268 184.9436,19.3888 183.3616,19.3888 L181.6726,19.3888 L181.6726,4.2988 Z M175.3276,3.6908 C175.6436,3.9778 175.8206,4.3388 175.8606,4.7728 L175.8606,18.8558 C175.8606,19.2908 175.6976,19.6658 175.3716,19.9818 C175.0456,20.2988 174.6546,20.4568 174.2006,20.4568 L173.8456,20.4568 L173.8456,20.7528 L183.9256,20.7528 C187.2846,20.7528 189.8946,19.9778 191.7516,18.4258 C193.6106,16.8738 194.5386,14.6898 194.5386,11.8738 C194.5386,9.0568 193.6106,6.8678 191.7516,5.3068 C189.8946,3.7458 187.2846,2.9648 183.9256,2.9648 L173.8156,2.9648 L173.8156,3.2608 L174.1716,3.2608 C174.6256,3.2608 175.0116,3.4048 175.3276,3.6908 L175.3276,3.6908 Z" id="Fill-15"></path>
                <path d="M211.5857,14.5269 L211.3187,14.5269 C210.9637,16.0289 210.3007,17.2149 209.3327,18.0849 C208.3637,18.9549 207.2867,19.3889 206.1017,19.3889 L203.2547,19.3889 L203.2547,12.6889 L205.5377,12.6889 C206.4067,12.6889 207.1137,12.9759 207.6577,13.5489 C208.2007,14.1219 208.4737,14.8429 208.4737,15.7129 L208.4737,15.8319 L208.7697,15.8319 L208.7697,8.1829 L208.4737,8.1829 L208.4737,8.2419 C208.4737,9.1309 208.2007,9.8579 207.6577,10.4209 C207.1137,10.9849 206.4067,11.2759 205.5377,11.2959 L203.2547,11.2959 L203.2547,4.3289 L206.3087,4.3289 C207.4157,4.3479 208.2707,4.6739 208.8727,5.3069 C209.4767,5.9399 209.7767,6.8289 209.7767,7.9749 L209.7767,8.1229 L210.0737,8.1229 L210.0737,2.5199 C209.8367,2.6189 209.4117,2.7179 208.7997,2.8169 C208.1867,2.9159 207.6327,2.9649 207.1387,2.9649 L195.5767,2.9649 L195.5767,3.2609 L195.9017,3.2609 C196.3167,3.2609 196.6787,3.4089 196.9847,3.7059 C197.2907,4.0029 197.4437,4.3779 197.4437,4.8329 L197.4437,18.9149 C197.4437,19.3499 197.2467,19.7549 196.8517,20.1309 C196.6337,20.3479 196.3167,20.4569 195.9017,20.4569 L195.5767,20.4569 L195.5767,20.7529 L210.7557,20.7529 L211.5857,14.5269 Z" id="Fill-17"></path>
                <g id="Group-21" transform="translate(0.000000, 29.079100)">
                    <path d="M5.405,14.8618 C5.435,14.9568 5.474,15.0468 5.507,15.1398 C5.487,15.1108 5.467,15.0808 5.432,15.0558 C5.288,15.0008 5.286,15.3068 5.104,15.1588 C5.119,15.1378 5.126,15.1198 5.148,15.0978 C5.227,15.0158 5.335,14.9478 5.405,14.8618 L5.405,14.8618 Z M5.671,18.7548 C5.7,18.7308 5.704,18.6988 5.673,18.6548 C5.781,18.7348 5.924,18.7978 6.005,18.8918 C5.989,18.8958 5.979,18.9068 5.966,18.9148 C5.894,18.8318 5.799,18.7758 5.671,18.7548 L5.671,18.7548 Z M3.303,15.3578 C3.29,15.1928 3.425,15.0568 3.462,14.8868 C3.454,14.8548 3.426,14.8258 3.401,14.7968 C3.589,14.7878 3.509,14.6388 3.578,14.5688 C3.575,14.5378 3.571,14.5068 3.567,14.4748 C3.606,14.4658 3.634,14.4548 3.659,14.4428 C3.641,14.5098 3.62,14.5758 3.575,14.6338 C3.548,14.9068 3.331,15.1088 3.303,15.3578 L3.303,15.3578 Z M2.799,16.9168 C2.747,16.8318 2.869,16.7908 2.932,16.7438 C2.909,16.8608 2.873,16.9728 2.8,17.0718 C2.796,17.0818 2.79,17.0918 2.786,17.1018 L2.692,17.0768 C2.727,17.0238 2.762,16.9698 2.799,16.9168 L2.799,16.9168 Z M25.225,12.9988 C24.672,15.9238 23.9,17.9008 22.913,18.9278 C21.865,20.0348 20.175,20.5878 17.843,20.5878 C15.827,20.5288 14.251,19.6688 13.114,18.0088 C11.977,16.3488 11.409,14.0708 11.409,11.1748 C11.409,8.2798 12.022,6.0218 13.248,4.4008 C14.472,2.7798 16.182,1.9698 18.377,1.9698 C19.997,1.9698 21.351,2.3948 22.438,3.2448 C23.525,4.0938 24.355,5.5178 24.928,7.5138 L25.195,7.5138 L25.492,1.8508 C23.357,0.9418 20.877,0.4868 18.051,0.4868 C15.223,0.4868 12.837,0.9128 10.89,1.7618 C8.943,2.6118 7.456,3.8478 6.428,5.4678 C5.653,6.6908 5.173,8.0888 4.982,9.6608 C4.891,9.5168 4.87,9.3258 4.686,9.4458 C4.328,9.6788 3.739,9.6678 3.466,9.9558 C3.535,9.9818 3.605,10.0088 3.676,10.0348 C4.159,10.1248 4.486,9.9318 4.923,9.9358 C4.895,9.9878 4.893,10.0458 4.906,10.1078 C4.786,10.1748 4.805,10.3018 4.798,10.4168 C4.843,10.4648 4.882,10.5168 4.928,10.5638 C4.917,10.7938 4.887,11.0128 4.887,11.2488 C4.887,11.3758 4.9,11.4938 4.903,11.6188 C4.367,11.5428 4.214,11.7778 4.08,12.0118 C3.925,12.2818 3.683,12.3618 3.204,12.2738 C2.766,12.1938 2.463,12.3068 2.415,12.6188 C2.768,12.8398 3.01,12.6998 3.304,12.6638 C3.071,12.7838 3.08,12.9488 3.268,13.1488 C3.512,13.4078 3.823,13.5368 4.205,13.4688 C4.161,13.7368 3.988,13.8898 3.799,14.0348 C3.739,14.1058 3.717,14.1898 3.698,14.2758 C3.649,14.2068 3.559,14.1318 3.505,14.0618 C3.459,14.0028 3.413,13.9428 3.366,13.8828 C3.269,13.8538 3.126,13.7758 3.106,13.8718 C3.074,14.0258 3.253,14.1238 3.455,14.1948 C3.528,14.2958 3.533,14.3808 3.445,14.4448 C3.305,14.5638 2.852,14.0028 2.861,14.4448 C2.815,14.4248 2.769,14.4048 2.72,14.3968 C2.282,14.3818 1.968,14.4448 2.2,14.8618 C1.87,14.5428 1.596,14.4988 1.429,14.7818 C1.344,14.9258 1.149,14.9908 1.042,15.1148 C1.02,15.1798 1.035,15.2468 1.115,15.3148 C1.343,15.4658 1.592,15.4458 1.831,15.5028 C2.619,15.6918 3.004,16.0538 2.962,16.5808 C2.96,16.6068 2.952,16.6308 2.948,16.6558 C2.935,16.6428 2.917,16.6288 2.887,16.6118 C2.711,16.5128 2.768,16.7338 2.692,16.7948 C2.54,16.7788 2.572,16.8868 2.512,16.9338 C2.475,16.9868 2.439,17.0388 2.402,17.0908 C2.259,17.1588 2.241,17.2858 2.213,17.4068 C2.235,17.4268 2.258,17.4368 2.28,17.4478 C2.121,17.4758 2.046,17.5448 2.115,17.6828 C1.828,17.6988 1.617,17.4138 1.331,17.4278 C1.24,17.4138 1.15,17.4068 1.065,17.4148 C0.916,17.4538 0.785,17.5018 0.881,17.6618 C0.766,17.5848 0.77,17.4528 0.598,17.3948 C0.195,17.3708 -0.005,17.4998 1.35525272e-20,17.7808 C0.381,17.9258 0.115,18.1148 0.269,18.2758 C0.417,18.3568 0.544,18.3688 0.666,18.3598 C0.604,18.3958 0.554,18.4398 0.539,18.5098 C0.509,18.5788 0.413,18.6508 0.632,18.7158 C0.676,18.7628 0.719,18.8108 0.762,18.8578 L0.733,19.0818 C1.117,19.2108 1.077,18.9388 1.253,18.8698 C1.481,18.7798 1.502,18.4838 1.948,18.6108 C2.175,18.4998 1.82,18.4098 1.801,18.3078 C1.901,18.0998 2.084,17.9398 2.287,17.7908 C2.578,17.8188 2.565,17.6328 2.659,17.5228 L2.659,17.5218 L2.659,17.5228 C2.686,17.5038 2.712,17.4848 2.738,17.4658 C3.033,17.6418 3.192,17.5408 3.313,17.4228 C3.812,16.9338 4.509,16.5988 5.211,16.2668 C5.219,16.2608 5.227,16.2548 5.237,16.2488 C5.372,16.3378 5.539,16.3428 5.694,16.3858 C5.863,16.4338 6.009,16.4928 6.134,16.5598 C6.267,16.8028 6.417,17.0368 6.572,17.2658 C6.566,17.2898 6.575,17.3138 6.565,17.3378 C6.557,17.3558 6.544,17.3708 6.535,17.3878 C6.535,17.3288 6.547,17.2748 6.524,17.2048 C6.286,17.0558 6.059,16.9098 5.946,16.6918 C5.866,16.5358 5.672,16.5098 5.498,16.5378 C5.284,16.5698 5.339,16.6878 5.427,16.8208 C5.527,16.9698 5.775,17.0858 5.772,17.2568 C5.592,17.3408 5.426,17.4348 5.358,17.5908 C5.385,17.6408 5.414,17.6908 5.442,17.7398 C5.429,17.7478 5.419,17.7558 5.406,17.7628 C5.232,17.8738 5.027,17.9628 4.929,18.1238 C4.768,18.0178 4.678,18.1198 4.567,18.1598 C4.558,18.1648 4.551,18.1698 4.542,18.1748 C4.514,18.1448 4.488,18.1148 4.461,18.0848 C4.304,18.1578 4.138,18.2248 4.149,18.3958 C4.095,18.4428 4.043,18.4898 3.99,18.5368 C3.774,18.4198 3.666,18.4908 3.561,18.5718 C3.562,18.6148 3.563,18.6578 3.565,18.7008 C3.538,18.7618 3.453,18.8148 3.545,18.8998 C3.658,19.0048 3.735,18.9338 3.799,18.9038 C3.903,18.8558 3.99,18.7898 4.085,18.7318 C4.459,18.6618 4.587,18.3698 4.99,18.3258 C4.99,18.3648 4.99,18.4038 4.989,18.4428 C5.51,18.5588 5.708,18.2778 5.931,18.1248 C5.981,18.0908 6.035,18.0538 6.087,18.0178 C6.037,18.1038 6.004,18.1978 5.995,18.3028 C5.973,18.2938 5.959,18.2838 5.93,18.2768 C5.747,18.2548 5.634,18.3038 5.578,18.4078 C5.57,18.4318 5.589,18.4598 5.59,18.4838 C5.368,18.5948 5.163,18.7178 5.079,18.9208 C5.111,18.9508 5.126,18.9818 5.122,19.0108 C5.089,19.0528 5.056,19.0938 5.023,19.1348 C4.723,19.3318 5.323,19.6218 5.184,19.8348 C5.204,19.9898 4.803,20.1718 5.428,20.2878 C5.491,20.2258 5.588,20.2438 5.694,20.2828 C5.808,20.0398 6.231,20.0578 6.451,19.9038 C6.698,19.8898 6.944,19.8758 7.191,19.8618 C7.366,19.6308 7.128,19.4998 6.803,19.3908 C6.907,19.0538 6.457,18.8288 6.18,18.5688 C6.459,18.3368 6.715,18.0928 6.959,17.8378 C6.965,17.8318 6.968,17.8258 6.975,17.8198 C7.376,18.3198 7.825,18.7868 8.341,19.2098 C10.643,21.0968 13.826,22.0458 17.887,22.0558 C21.949,22.0658 24.711,20.8448 26.174,18.3938 L25.462,12.9988 L25.225,12.9988 Z" id="Fill-19"></path>
                </g>
                <path d="M42.4196,47.6953 C41.6086,49.0693 40.4336,49.7563 38.8926,49.7563 C37.3506,49.7563 36.1736,49.0693 35.3636,47.6953 C34.5536,46.3223 34.1486,44.3703 34.1486,41.8403 C34.1486,39.3103 34.5536,37.3593 35.3636,35.9853 C36.1736,34.6113 37.3506,33.9243 38.8926,33.9243 C39.9196,33.9243 40.7886,34.2403 41.5006,34.8733 C42.9236,36.1183 43.6356,38.4503 43.6356,41.8703 C43.6356,44.3803 43.2306,46.3223 42.4196,47.6953 M46.8526,35.0213 C44.9436,33.4013 42.2966,32.5903 38.9066,32.5903 C35.5166,32.5903 32.8676,33.4013 30.9616,35.0213 C29.0536,36.6423 28.1006,38.9153 28.1006,41.8403 C28.1006,44.7653 29.0536,47.0383 30.9616,48.6593 C32.8676,50.2793 35.5166,51.0903 38.9066,51.0903 C42.2966,51.0903 44.9436,50.2793 46.8526,48.6593 C48.7596,47.0383 49.7126,44.7653 49.7126,41.8403 C49.7126,38.9153 48.7596,36.6423 46.8526,35.0213" id="Fill-22"></path>
                <path d="M62.7585,33.2427 L63.2625,33.2427 C63.7165,33.2427 64.0965,33.3867 64.4035,33.6727 C64.7095,33.9587 64.8635,34.3097 64.8635,34.7247 L64.8635,43.0557 L52.4415,32.5607 L52.1735,32.5607 L52.2635,32.8867 C52.4415,33.5787 52.5295,34.5177 52.5295,35.7027 L52.5295,48.9557 C52.5295,49.3707 52.3715,49.7217 52.0555,50.0077 C51.7385,50.2947 51.3535,50.4377 50.8995,50.4377 L50.4245,50.4377 L50.4245,50.7347 L60.4455,50.7347 L60.4455,50.4377 L59.9715,50.4377 C59.5165,50.4377 59.1365,50.2947 58.8295,50.0077 C58.5235,49.7217 58.3605,49.3707 58.3405,48.9557 L58.3405,40.6247 L70.7925,51.0907 L71.0595,51.0907 L70.9705,50.7637 C70.7925,50.1117 70.7035,49.1437 70.7035,47.8587 L70.7035,34.6957 C70.7035,34.2807 70.8615,33.9347 71.1775,33.6577 C71.4935,33.3807 71.8795,33.2427 72.3335,33.2427 L72.8375,33.2427 L72.8375,32.9467 L62.7585,32.9467 L62.7585,33.2427 Z" id="Fill-24"></path>
                <path d="M85.2312,40.0615 L81.4072,38.3115 C80.6752,38.0155 80.1022,37.7295 79.6872,37.4525 C79.1532,37.0775 78.9172,36.5735 78.9752,35.9405 C79.1142,34.6355 80.1912,33.9835 82.2072,33.9835 C83.2542,33.9835 84.1282,34.2755 84.8312,34.8585 C85.5322,35.4415 85.8832,36.2175 85.8832,37.1855 L86.0612,37.1855 L86.7732,32.8565 L84.7872,32.8565 C82.9092,32.6795 81.4172,32.5905 80.3092,32.5905 C76.9892,32.5905 75.1112,34.1225 74.6762,37.1855 C74.6362,37.5015 74.6182,37.8185 74.6182,38.1345 C74.6182,39.0825 74.8442,39.9535 75.2992,40.7435 C75.8922,41.7705 76.8212,42.5515 78.0862,43.0855 L81.1992,44.5385 C82.2472,44.9935 83.0022,45.4475 83.4672,45.9015 C83.9312,46.3565 84.1642,46.8805 84.1642,47.4735 C84.1642,48.0655 83.9072,48.5895 83.3932,49.0445 C82.8782,49.4995 82.1182,49.7265 81.1102,49.7265 C79.4102,49.7265 78.0762,49.2035 77.1082,48.1555 C76.1592,47.1075 75.6842,45.9215 75.6842,44.5975 L75.6842,44.3305 L75.5062,44.3305 C75.0332,44.9235 74.6862,45.7445 74.4692,46.7915 C74.3902,47.2065 74.3502,47.6415 74.3502,48.0955 C74.3502,48.5505 74.4392,48.9855 74.6182,49.4005 C74.9932,49.8745 75.6692,50.2745 76.6482,50.6015 C77.6272,50.9275 78.8462,51.0905 80.3092,51.0905 C82.7602,51.0905 84.6772,50.6055 86.0612,49.6375 C87.6232,48.5505 88.4032,46.9195 88.4032,44.7455 C88.4032,43.6985 88.1362,42.7695 87.6032,41.9585 C87.0692,41.1485 86.2792,40.5165 85.2312,40.0615" id="Fill-26"></path>
                <path d="M103.5232,48.0659 C102.5542,48.9359 101.4772,49.3709 100.2922,49.3709 L97.4452,49.3709 L97.4452,42.6699 L99.7282,42.6699 C100.5972,42.6699 101.3042,42.9569 101.8482,43.5299 C102.3912,44.1039 102.6642,44.8249 102.6642,45.6939 L102.6642,45.8129 L102.9602,45.8129 L102.9602,38.1639 L102.6642,38.1639 L102.6642,38.2229 C102.6642,39.1129 102.3912,39.8389 101.8482,40.4019 C101.3042,40.9659 100.5972,41.2569 99.7282,41.2769 L97.4452,41.2769 L97.4452,34.3099 L100.4992,34.3099 C101.6062,34.3299 102.4612,34.6559 103.0632,35.2879 C103.6672,35.9209 103.9672,36.8109 103.9672,37.9569 L103.9672,38.1049 L104.2642,38.1049 L104.2642,32.5019 C104.0272,32.6009 103.6022,32.6989 102.9902,32.7979 C102.3772,32.8969 101.8232,32.9459 101.3292,32.9459 L89.7672,32.9459 L89.7672,33.2429 L90.0922,33.2429 C90.5072,33.2429 90.8692,33.3909 91.1752,33.6879 C91.4812,33.9839 91.6342,34.3589 91.6342,34.8139 L91.6342,48.8969 C91.6342,49.3309 91.4372,49.7359 91.0422,50.1119 C90.8242,50.3299 90.5072,50.4379 90.0922,50.4379 L89.7672,50.4379 L89.7672,50.7339 L104.9462,50.7339 L105.7762,44.5079 L105.5092,44.5079 C105.1542,46.0109 104.4912,47.1969 103.5232,48.0659" id="Fill-28"></path>
                <path d="M123.9499,46.0503 C123.7519,45.6353 123.5589,45.2593 123.3719,44.9233 C123.1829,44.5883 122.7989,44.1573 122.2159,43.6333 C121.6329,43.1103 120.9949,42.7593 120.3039,42.5813 C121.7649,42.3243 122.7829,41.6923 123.3569,40.6843 C123.8499,39.8143 124.0979,38.8653 124.0979,37.8383 C124.0979,34.5763 121.8449,32.9463 117.3389,32.9463 L107.1389,32.9463 L107.1389,33.2423 L107.4959,33.2423 C107.9109,33.2423 108.2619,33.3903 108.5489,33.6873 C108.8349,33.9843 108.9779,34.3493 108.9779,34.7843 L108.9779,48.8963 C108.9779,49.3313 108.8299,49.6963 108.5329,49.9933 C108.2369,50.2893 107.8809,50.4383 107.4659,50.4383 L107.1389,50.4383 L107.1389,50.7343 L116.6569,50.7343 L116.6569,50.4383 L116.3889,50.4383 C115.9939,50.4383 115.6339,50.3043 115.3069,50.0373 C114.9809,49.7713 114.8179,49.3903 114.8179,48.8963 L114.8179,34.3693 L115.4119,34.3693 C115.6879,34.3693 115.9939,34.4283 116.3309,34.5473 C116.6459,34.6463 116.9029,34.7943 117.1009,34.9913 C117.2989,35.1893 117.5259,35.5803 117.7829,36.1623 C118.0399,36.7463 118.1189,37.4823 118.0199,38.3713 L118.0199,38.5493 C117.9019,39.6963 117.6349,40.5213 117.2199,41.0253 C116.8039,41.5293 116.3199,41.7803 115.7669,41.7803 L115.6189,41.7803 L115.6189,42.0183 C116.0729,42.2553 116.3989,42.8183 116.5969,43.7083 C116.9329,45.3883 117.3679,46.6833 117.9019,47.5923 C118.2379,48.1843 118.5889,48.7033 118.9539,49.1483 C119.3199,49.5923 119.9079,49.9933 120.7189,50.3493 C121.3109,50.6063 122.5859,50.7343 124.5429,50.7343 L128.0409,50.7343 L128.0409,50.4383 C127.5079,50.4383 127.0629,50.3293 126.7069,50.1123 C126.0349,49.6773 125.1159,48.3233 123.9499,46.0503" id="Fill-30"></path>
                <path d="M144.9695,33.2427 L145.2065,33.2427 L145.2065,32.9467 L139.1285,32.9467 L139.1285,33.2127 L139.3655,33.2127 C139.7615,33.2127 140.0475,33.3217 140.2265,33.5387 C140.4045,33.7567 140.4925,33.9647 140.4925,34.1617 C140.4925,34.3597 140.4435,34.5667 140.3445,34.7847 L136.9055,42.4037 L133.4665,34.7847 C133.3875,34.5867 133.3475,34.3887 133.3475,34.1917 C133.3475,33.9937 133.4415,33.7817 133.6295,33.5537 C133.8175,33.3267 134.0985,33.2127 134.4745,33.2127 L134.7115,33.2127 L134.7115,32.9467 L124.3055,32.9467 L124.3055,33.2427 L124.5125,33.2427 C125.4425,33.2427 126.1625,33.6877 126.6775,34.5767 L135.0075,51.0907 L135.2445,51.0907 C135.3045,50.4967 135.8185,49.1737 136.7865,47.1177 L142.7755,34.6067 C143.2695,33.6977 144.0005,33.2427 144.9695,33.2427" id="Fill-32"></path>
                <path d="M145.8591,45.6353 L148.0231,40.6543 L150.1871,45.6353 L145.8591,45.6353 Z M158.2811,48.9263 L149.9211,31.8793 L149.6831,31.8793 C149.6241,32.3933 149.1101,33.7073 148.1411,35.8223 L142.0341,48.9853 C141.7971,49.4793 141.4651,49.8443 141.0411,50.0823 C140.6161,50.3193 140.1961,50.4383 139.7811,50.4383 L139.5441,50.4383 L139.5441,50.7343 L145.6511,50.7343 L145.6511,50.4383 L145.4441,50.4383 C145.0481,50.4383 144.7561,50.3343 144.5691,50.1263 C144.3811,49.9193 144.2881,49.7263 144.2881,49.5483 C144.2881,49.3703 144.3271,49.1933 144.4061,49.0143 L145.2961,46.9693 L150.7801,46.9693 L151.6401,48.9263 C151.7391,49.1433 151.7881,49.3463 151.7881,49.5333 C151.7881,49.7213 151.6941,49.9193 151.5061,50.1263 C151.3181,50.3343 151.0271,50.4383 150.6311,50.4383 L150.3951,50.4383 L150.3951,50.7343 L160.8311,50.7343 L160.8311,50.4383 L160.5931,50.4383 C159.5651,50.4383 158.7951,49.9343 158.2811,48.9263 L158.2811,48.9263 Z" id="Fill-34"></path>
                <path d="M177.0173,43.3228 C176.6623,44.9828 176.2953,46.2478 175.9203,47.1168 C175.5253,48.0268 174.9423,48.6988 174.1713,49.1338 C173.4593,49.5488 172.4123,49.7558 171.0293,49.7558 C169.3693,49.6968 168.0793,48.9508 167.1603,47.5178 C166.2413,46.0848 165.7813,44.1578 165.7813,41.7368 C165.7813,39.3158 166.2503,37.4078 167.1893,36.0148 C168.1283,34.6208 169.5763,33.9248 171.5333,33.9248 C172.8373,33.9248 173.9293,34.2848 174.8093,35.0068 C175.6883,35.7288 176.3843,36.9588 176.8993,38.6978 L177.1063,38.6978 L177.4923,33.6578 C175.6933,32.9468 173.5383,32.5908 171.0293,32.5908 C167.4513,32.5908 164.6743,33.4008 162.6983,35.0218 C160.7213,36.6418 159.7333,38.8558 159.7333,41.6618 C159.7333,44.4688 160.5733,46.6628 162.2533,48.2438 C163.9333,49.8258 166.2753,50.7438 169.2803,51.0008 L167.8573,52.8398 L168.0043,53.1358 C169.0133,52.8198 169.8233,52.8688 170.4363,53.2838 C170.7513,53.5208 170.9103,53.7978 170.9103,54.1148 C170.9103,54.9048 170.5743,55.5028 169.9023,55.9078 C169.2303,56.3128 168.5383,56.5158 167.8273,56.5158 L167.7973,56.8118 C168.3713,56.9898 168.9333,57.0788 169.4873,57.0788 C170.6333,57.0788 171.6213,56.7228 172.4523,56.0118 C173.0843,55.4778 173.4013,54.7568 173.4013,53.8468 C173.4013,53.6108 173.2823,53.3438 173.0443,53.0468 C172.8073,52.7508 172.4913,52.5478 172.0963,52.4388 C171.7013,52.3298 171.3993,52.2758 171.1923,52.2758 L170.5843,52.2758 C170.3863,52.2758 170.1493,52.3248 169.8723,52.4248 L171.0293,51.0908 C174.4873,51.0908 176.8103,50.0818 177.9963,48.0658 L177.2253,43.3228 L177.0173,43.3228 Z" id="Fill-36"></path>
                <path d="M194.154,26.4531 C194.015,26.7501 193.704,27.0411 193.219,27.3281 C192.735,27.6151 192.355,27.7581 192.079,27.7581 C191.189,27.7581 190.211,27.4911 189.143,26.9571 C188.076,26.4241 187.256,26.1571 186.682,26.1571 C186.109,26.1571 185.595,26.2751 185.141,26.5131 C184.389,26.8881 183.797,27.5801 183.362,28.5881 C183.184,29.0431 183.095,29.4771 183.095,29.8921 C183.095,30.3071 183.125,30.6631 183.184,30.9601 L183.54,30.9601 C183.777,30.3671 184.281,29.9121 185.052,29.5961 C185.348,29.4771 185.595,29.4181 185.794,29.4181 C185.991,29.4181 186.223,29.4381 186.49,29.4771 C186.757,29.5171 187.113,29.6311 187.557,29.8181 C188.002,30.0061 188.383,30.1891 188.699,30.3671 C189.489,30.8221 190.22,31.0491 190.892,31.0491 C191.564,31.0491 192.137,30.9301 192.612,30.6931 C193.402,30.3371 194.006,29.6651 194.421,28.6771 C194.598,28.3021 194.687,27.9211 194.687,27.5361 C194.687,27.1501 194.628,26.7891 194.509,26.4531 L194.154,26.4531 Z" id="Fill-38"></path>
                <path d="M184.4001,45.6353 L186.5641,40.6543 L188.7281,45.6353 L184.4001,45.6353 Z M196.8221,48.9263 L188.4621,31.8793 L188.2241,31.8793 C188.1451,32.3933 187.6311,33.7073 186.6821,35.8223 L180.5751,48.9853 C180.3381,49.4793 180.0061,49.8443 179.5821,50.0823 C179.1571,50.3193 178.7371,50.4383 178.3221,50.4383 L178.0851,50.4383 L178.0851,50.7343 L184.1921,50.7343 L184.1921,50.4383 L183.9851,50.4383 C183.5891,50.4383 183.2971,50.3343 183.1101,50.1263 C182.9221,49.9193 182.8291,49.7263 182.8291,49.5483 C182.8291,49.3703 182.8681,49.1933 182.9471,49.0143 L183.8071,46.9693 L189.3211,46.9693 L190.1811,48.9263 C190.2801,49.1433 190.3291,49.3463 190.3291,49.5333 C190.3291,49.7213 190.2351,49.9193 190.0471,50.1263 C189.8591,50.3343 189.5681,50.4383 189.1721,50.4383 L188.9361,50.4383 L188.9361,50.7343 L199.3721,50.7343 L199.3721,50.4383 L199.1341,50.4383 C198.1061,50.4383 197.3361,49.9343 196.8221,48.9263 L196.8221,48.9263 Z" id="Fill-40"></path>
                <path d="M207.4489,40.0015 C207.4579,39.9925 207.4679,39.9835 207.4759,39.9745 C207.5099,39.9925 207.5419,40.0105 207.5749,40.0285 L207.3899,40.1595 C207.4169,40.2625 207.2619,40.2665 207.1699,40.2945 C207.2429,40.1835 207.3269,40.0795 207.4489,40.0015 M205.8459,42.0225 C205.8449,42.0585 205.8639,42.0965 205.8829,42.1345 C205.6629,42.0855 205.6979,42.2605 205.5919,42.3115 C205.5829,42.3445 205.5749,42.3765 205.5669,42.4095 C205.5179,42.4075 205.4819,42.4105 205.4499,42.4145 C205.4949,42.3515 205.5459,42.2915 205.6189,42.2465 C205.7559,41.9765 206.0829,41.8375 206.2109,41.5925 C206.1629,41.7655 205.9559,41.8615 205.8459,42.0225 M212.6529,47.6955 C211.8429,49.0695 210.6669,49.7555 209.1259,49.7555 C207.5839,49.7555 206.4069,49.0695 205.5969,47.6955 C205.1149,46.8775 204.7939,45.8305 204.5979,44.6035 C204.7549,44.6195 204.9269,44.6655 205.1399,44.7635 C205.6129,44.9795 206.0069,44.9575 206.1799,44.6535 C205.8589,44.3205 205.5259,44.3895 205.1739,44.3355 C205.4889,44.2855 205.5419,44.1135 205.4019,43.8535 C205.2209,43.5145 204.9129,43.2865 204.4459,43.2395 C204.5999,42.9795 204.8579,42.8765 205.1319,42.7875 C205.2269,42.7335 205.2859,42.6545 205.3409,42.5725 C205.3699,42.6585 205.4449,42.7625 205.4799,42.8495 C205.5109,42.9245 205.5409,43.0005 205.5709,43.0745 C205.6729,43.1335 205.8059,43.2575 205.8669,43.1655 C205.9629,43.0195 205.7949,42.8645 205.5899,42.7295 C205.5439,42.6055 205.5709,42.5165 205.6969,42.4795 C205.9029,42.3995 206.2099,43.1105 206.3679,42.6575 C206.4129,42.6925 206.4599,42.7265 206.5119,42.7495 C207.0119,42.9005 207.3959,42.9315 207.2899,42.4365 C207.5469,42.8625 207.8449,42.9915 208.1469,42.7535 C208.3009,42.6335 208.5499,42.6265 208.7209,42.5335 C208.7709,42.4745 208.7789,42.4025 208.7139,42.3085 C208.5089,42.0845 208.2149,42.0285 207.9619,41.8965 C207.1269,41.4625 206.8229,40.9755 207.0729,40.4515 C207.0859,40.4255 207.1039,40.4035 207.1179,40.3785 C207.1279,40.3965 207.1429,40.4175 207.1719,40.4425 C207.3369,40.5975 207.3549,40.3555 207.4659,40.3165 C207.6359,40.3795 207.6399,40.2595 207.7269,40.2305 C207.7889,40.1885 207.8509,40.1465 207.9129,40.1045 C208.1049,40.0785 208.1739,39.9555 208.2539,39.8405 C208.2349,39.8125 208.2129,39.7965 208.1909,39.7775 C208.3859,39.7985 208.4979,39.7515 208.4709,39.5885 C208.8079,39.6615 208.9409,40.0165 209.2759,40.0895 C209.3759,40.1315 209.4759,40.1665 209.5769,40.1845 C209.7639,40.1905 209.9329,40.1815 209.8849,39.9905 C209.9869,40.1035 209.9319,40.2365 210.1069,40.3485 C210.5619,40.4965 210.8419,40.4275 210.9439,40.1395 C210.5619,39.8745 210.9399,39.7635 210.8249,39.5525 C210.6859,39.4245 210.5439,39.3735 210.3999,39.3445 C210.4849,39.3275 210.5589,39.2975 210.6039,39.2305 C210.6659,39.1695 210.8029,39.1265 210.5759,38.9935 C210.5439,38.9315 210.5119,38.8695 210.4799,38.8075 C210.5199,38.7345 210.5589,38.6615 210.5999,38.5885 C210.2079,38.3405 210.1489,38.6295 209.9209,38.6455 C209.6239,38.6675 209.4849,38.9615 209.0199,38.6955 C208.7179,38.7385 209.0909,38.9395 209.0729,39.0485 C208.8789,39.2305 208.6059,39.3375 208.3149,39.4265 C207.9909,39.3095 207.9339,39.5015 207.7839,39.5855 C207.7459,39.5965 207.7089,39.6075 207.6709,39.6195 C207.3999,39.3495 207.1779,39.4035 206.9929,39.4865 C206.2559,39.8195 205.3609,39.9485 204.4569,40.0675 C204.4999,39.5865 204.5709,39.1445 204.6509,38.7155 C204.6669,38.7035 204.6899,38.7005 204.7039,38.6865 C204.6939,38.6435 204.6839,38.5995 204.6749,38.5555 C204.6779,38.5395 204.6779,38.5215 204.6819,38.5045 C204.6929,38.5025 204.7029,38.4995 204.7149,38.4975 C204.9559,38.4385 205.2269,38.4105 205.4009,38.2755 C205.5469,38.4345 205.6889,38.3565 205.8319,38.3505 C205.8449,38.3485 205.8549,38.3455 205.8679,38.3435 C205.8869,38.3825 205.9069,38.4205 205.9269,38.4595 C206.1339,38.4335 206.3509,38.4165 206.4049,38.2385 C206.4839,38.2075 206.5629,38.1755 206.6409,38.1445 C206.8449,38.3295 206.9979,38.2905 207.1479,38.2395 C207.1639,38.1955 207.1779,38.1515 207.1939,38.1075 C207.2489,38.0535 207.3669,38.0255 207.2939,37.9115 C207.2039,37.7695 207.0889,37.8175 207.0029,37.8285 C206.8639,37.8465 206.7389,37.8855 206.6079,37.9165 C206.1499,37.8725 205.8899,38.1315 205.4089,38.0515 C205.4249,38.0125 205.4399,37.9725 205.4549,37.9335 C205.2259,37.8185 205.0409,37.8005 204.8729,37.8115 C204.8849,37.7705 204.8949,37.7275 204.9079,37.6865 C205.1569,37.6415 205.3859,37.5735 205.5349,37.4185 C205.5099,37.3775 205.5059,37.3425 205.5219,37.3135 C205.5749,37.2815 205.6289,37.2495 205.6809,37.2175 C206.1019,37.1085 205.5239,36.6295 205.7659,36.4555 C205.8029,36.2915 206.3339,36.2295 205.6589,35.9195 C205.6529,35.9215 205.6459,35.9185 205.6399,35.9195 C206.4489,34.5925 207.6099,33.9245 209.1259,33.9245 C210.1529,33.9245 211.0219,34.2405 211.7339,34.8735 C213.1569,36.1185 213.8689,38.4505 213.8689,41.8705 C213.8689,44.3805 213.4639,46.3225 212.6529,47.6955 M217.0859,35.0215 C215.1779,33.4005 212.5299,32.5905 209.1399,32.5905 C205.7499,32.5905 203.1009,33.4005 201.1949,35.0215 C199.2869,36.6425 198.3339,38.9155 198.3339,41.8405 C198.3339,44.7655 199.2869,47.0385 201.1949,48.6595 C203.1009,50.2795 205.7499,51.0905 209.1399,51.0905 C212.5299,51.0905 215.1779,50.2795 217.0859,48.6595 C218.9929,47.0385 219.9459,44.7655 219.9459,41.8405 C219.9459,38.9155 218.9929,36.6425 217.0859,35.0215" id="Fill-42"></path>
                <path d="M209.0876,37.8208 C208.9346,37.7388 208.8166,37.7418 208.7286,37.8058 C208.7506,37.9038 208.7886,38.0098 208.9316,38.0588 C209.0766,38.1088 209.2206,38.1068 209.2596,38.0048 C209.2896,37.9288 209.1786,37.8688 209.0876,37.8208" id="Fill-44"></path>
                <path d="M210.1062,38.2593 C210.3162,38.3023 210.5022,38.3483 210.5392,38.1973 C210.5432,38.1813 210.4242,38.0943 210.3602,38.0723 C210.0772,37.9693 210.1582,38.1553 210.1062,38.2593" id="Fill-46"></path>
                <path d="M205.445,39.0645 C205.64,39.0645 205.813,39.0345 205.87,38.7955 C205.613,38.8235 205.383,38.7805 205.312,38.9305 C205.303,38.9485 205.422,39.0645 205.445,39.0645" id="Fill-48"></path>
                <path d="M205.6745,45.7212 C205.8525,45.6582 205.9445,45.5502 206.0105,45.3622 C205.6285,45.4742 205.6285,45.4742 205.6745,45.7212" id="Fill-50"></path>
                <path d="M204.8405,45.477 C205.0725,45.511 205.2205,45.482 205.2345,45.241 C205.0135,45.264 204.8535,45.296 204.8405,45.477" id="Fill-52"></path>
                <path d="M206.2204,44.5659 C206.5544,44.7669 206.6184,44.6389 206.6394,44.4579 C206.4184,44.3959 206.3784,44.5519 206.2204,44.5659" id="Fill-54"></path>
                <path d="M205.3405,43.1514 C205.2645,43.1194 205.1885,43.0874 205.1115,43.0554 C205.1945,43.2084 205.2365,43.4564 205.4855,43.4424 C205.7195,43.4284 205.4225,43.2554 205.3405,43.1514" id="Fill-56"></path>
                <path d="M208.2341,41.8999 C208.5341,41.9909 208.5601,41.7789 208.5651,41.5999 C208.2181,41.4699 207.8721,41.3409 207.5261,41.2119 C207.6971,41.4739 207.8461,41.7829 208.2341,41.8999" id="Fill-58"></path>
                <path d="M208.781,40.5635 C208.483,40.3855 208.325,40.5605 208.076,40.5065 C208.054,40.5185 208.052,40.5365 208.069,40.5615 C207.993,40.7995 208.329,40.8675 208.501,41.0035 C208.468,40.7505 209.221,41.1005 208.927,40.6475 C208.879,40.6195 208.83,40.5915 208.781,40.5635" id="Fill-60"></path>
                <path d="M5.7038,49.3647 C5.6998,49.3637 5.6978,49.3637 5.6938,49.3627 C5.6918,49.3657 5.6878,49.3677 5.6858,49.3717 L5.7038,49.3647 Z" id="Fill-62"></path>
                <path d="M2.2087,48.2363 C2.0777,48.2263 1.9657,48.2623 1.9657,48.3633 C1.9647,48.4383 2.0697,48.4653 2.1557,48.4863 C2.3017,48.5223 2.3937,48.4923 2.4437,48.4143 C2.3967,48.3313 2.3347,48.2463 2.2087,48.2363" id="Fill-64"></path>
                <path d="M0.8982,48.4961 C0.9002,48.5111 1.0192,48.5601 1.0772,48.5651 C1.3302,48.5891 1.2112,48.4421 1.2212,48.3371 C1.0432,48.3491 0.8812,48.3521 0.8982,48.4961" id="Fill-66"></path>
                <path d="M4.8054,46.5981 C4.8064,46.5791 4.6784,46.5041 4.6594,46.5101 C4.5064,46.5561 4.3784,46.6241 4.4054,46.8511 C4.5994,46.7651 4.7934,46.7491 4.8054,46.5981" id="Fill-68"></path>
                <path d="M4.1277,40.6885 C3.8137,40.7365 3.7467,40.9085 3.7737,41.1675 C4.1137,41.0975 4.0957,40.8805 4.1277,40.6885" id="Fill-70"></path>
                <path d="M2.4968,40.6255 C2.3748,40.7245 2.3348,40.8425 2.3388,41.0265 C2.6058,40.8345 2.6058,40.8345 2.4968,40.6255" id="Fill-72"></path>
                <path d="M3.2273,40.645 C3.0343,40.669 2.9263,40.73 2.9873,40.949 C3.1553,40.876 3.2713,40.809 3.2273,40.645" id="Fill-74"></path>
                <path d="M2.4099,41.7866 C2.0869,41.6866 2.0739,41.8156 2.1109,41.9826 C2.3039,41.9856 2.2889,41.8366 2.4099,41.7866" id="Fill-76"></path>
                <path d="M3.7341,42.8701 C3.6241,42.7531 3.5161,42.5421 3.3251,42.6141 C3.1441,42.6821 3.4301,42.7661 3.5251,42.8391 C3.5941,42.8491 3.6651,42.8601 3.7341,42.8701" id="Fill-78"></path>
                <path d="M1.614,44.644 C1.35,44.634 1.393,44.829 1.442,44.991 C1.755,45.024 2.067,45.057 2.379,45.09 C2.165,44.896 1.955,44.656 1.614,44.644" id="Fill-80"></path>
                <path d="M1.4402,45.9263 C1.4872,45.9393 1.5342,45.9533 1.5812,45.9663 C1.8692,46.0543 1.9422,45.8603 2.1552,45.8493 C2.1682,45.8343 2.1642,45.8173 2.1432,45.7993 C2.1312,45.5683 1.8472,45.5873 1.6702,45.5073 C1.7722,45.7243 1.0732,45.5933 1.4402,45.9263" id="Fill-82"></path>
            </g>
        </g>
    </g>
</svg>