<?xml version="1.0" encoding="UTF-8"?>
<svg width="300px" height="100px" viewBox="0 0 300 100" version="1.1" xmlns="http://www.w3.org/2000/svg" xmlns:xlink="http://www.w3.org/1999/xlink">
    <!-- Generator: Sketch 43.2 (39069) - http://www.bohemiancoding.com/sketch -->
    <title>tab-projetos</title>
    <desc>Created with Sketch.</desc>
    <defs>
        <polygon id="path-1" points="14.31 0.6671 14.31 19.1671 0.2571 19.1671 0.2571 0.6671"></polygon>
        <polygon id="path-3" points="0.193185929 0.684 1.19318593 0.684 1.19318593 1.68363118 0.193185929 1.68363118 0.193185929 0.684"></polygon>
    </defs>
    <g id="Page-1" stroke="none" stroke-width="1" fill="none" fill-rule="evenodd">
        <g id="tab-projetos">
            <g id="Page-1" transform="translate(73.000000, 36.000000)">
                <path d="M8.3285,23.1278 C8.3165,23.1338 8.3045,23.1378 8.2935,23.1458 C8.2865,23.1388 8.2785,23.1338 8.2725,23.1278 L8.3285,23.1278 Z M7.0335,17.3208 L7.0335,17.5428 C6.9995,17.5448 6.9595,17.5318 6.9055,17.4868 C6.9255,17.4558 6.9335,17.4278 6.9635,17.3928 C6.9835,17.3678 7.0105,17.3448 7.0335,17.3208 L7.0335,17.3208 Z M4.4305,17.8718 C4.4015,17.6218 4.5805,17.4098 4.6235,17.1488 C4.6095,17.1008 4.5715,17.0578 4.5335,17.0148 C4.7925,16.9928 4.6735,16.7708 4.7655,16.6608 C4.7595,16.6138 4.7525,16.5658 4.7465,16.5188 C4.7995,16.5028 4.8385,16.4848 4.8705,16.4658 C4.8495,16.5688 4.8245,16.6698 4.7655,16.7598 C4.7425,17.1748 4.4535,17.4918 4.4305,17.8718 L4.4305,17.8718 Z M3.8185,20.2638 C3.7425,20.1358 3.9085,20.0678 3.9945,19.9948 C3.9675,20.1728 3.9245,20.3448 3.8285,20.4988 C3.8235,20.5148 3.8165,20.5298 3.8105,20.5448 C3.7675,20.5338 3.7245,20.5228 3.6805,20.5118 C3.7255,20.4288 3.7715,20.3458 3.8185,20.2638 L3.8185,20.2638 Z M22.2725,4.0648 C20.8295,2.9378 18.7545,2.3748 16.0465,2.3748 L4.7515,2.3748 L4.7805,2.6708 L5.1365,2.6708 C5.6305,2.6708 6.0555,2.8348 6.4115,3.1608 C6.7665,3.4868 6.9745,3.8868 7.0335,4.3608 L7.0335,9.2488 C6.9325,9.2618 6.8305,9.2798 6.7155,9.3368 C6.2875,9.3058 6.3795,8.5488 6.0155,8.8288 C5.5325,9.1988 4.7195,9.2078 4.3555,9.6578 C4.4545,9.6948 4.5535,9.7318 4.6515,9.7688 C5.3235,9.8838 5.7655,9.5758 6.3665,9.5618 C6.3325,9.6428 6.3275,9.7318 6.3505,9.8268 C6.1925,9.9338 6.2265,10.1238 6.2225,10.2978 C6.3315,10.4148 6.3935,10.5588 6.5775,10.6348 C6.5795,10.6618 6.5785,10.6858 6.5885,10.7188 C6.7245,10.8958 6.8755,11.0108 7.0335,11.0918 L7.0335,11.3518 L6.8495,11.3108 C6.8485,11.3428 6.8465,11.3768 6.8455,11.4088 C6.9075,11.4288 6.9715,11.4478 7.0335,11.4668 L7.0335,11.5758 C6.7215,11.7008 6.7735,12.1648 6.5385,12.1238 C5.6895,11.9728 5.5005,12.3738 5.3175,12.7528 C5.1185,13.1698 4.7895,13.3038 4.1225,13.1918 C3.5145,13.0898 3.1005,13.2748 3.0535,13.7518 C3.5525,14.0708 3.8795,13.8468 4.2835,13.7788 C3.9675,13.9718 3.9885,14.2228 4.2595,14.5178 C4.6105,14.8998 5.0475,15.0828 5.5715,14.9608 C5.5245,15.3708 5.2955,15.6108 5.0415,15.8388 C4.9635,15.9498 4.9355,16.0788 4.9155,16.2108 C4.8445,16.1078 4.7165,15.9978 4.6375,15.8948 C4.5705,15.8058 4.5025,15.7168 4.4355,15.6288 C4.3005,15.5888 4.0985,15.4768 4.0755,15.6238 C4.0405,15.8588 4.2915,15.9988 4.5745,16.0988 C4.6825,16.2488 4.6935,16.3778 4.5745,16.4778 C4.3895,16.6668 3.7315,15.8338 3.7695,16.5058 C3.7055,16.4768 3.6405,16.4488 3.5715,16.4388 C2.9655,16.4348 2.5365,16.5458 2.8785,17.1688 C2.4055,16.6978 2.0255,16.6438 1.8095,17.0828 C1.7005,17.3048 1.4335,17.4128 1.2925,17.6058 C1.2665,17.7058 1.2915,17.8058 1.4045,17.9048 C1.7285,18.1248 2.0705,18.0828 2.4045,18.1588 C3.5035,18.4098 4.0545,18.9428 4.0255,19.7448 C4.0235,19.7848 4.0145,19.8218 4.0115,19.8608 C3.9925,19.8408 3.9665,19.8198 3.9245,19.7958 C3.6745,19.6538 3.7665,19.9868 3.6655,20.0818 C3.4535,20.0648 3.5045,20.2288 3.4245,20.3018 C3.3765,20.3838 3.3285,20.4638 3.2805,20.5448 C3.0865,20.6558 3.0685,20.8488 3.0355,21.0338 C3.0685,21.0648 3.0995,21.0768 3.1325,21.0938 C2.9135,21.1428 2.8135,21.2508 2.9165,21.4588 C2.5205,21.4958 2.2145,21.0708 1.8195,21.1058 C1.6925,21.0888 1.5685,21.0828 1.4525,21.0978 C1.2475,21.1648 1.0695,21.2438 1.2105,21.4818 C1.0495,21.3708 1.0465,21.1698 0.8065,21.0878 C0.2485,21.0708 -0.0215,21.2748 0.0015,21.7028 C0.5345,21.9058 0.1785,22.2058 0.3995,22.4418 C0.6075,22.5588 0.7845,22.5708 0.9515,22.5518 C0.8695,22.6088 0.8025,22.6788 0.7855,22.7858 C0.7475,22.8928 0.6185,23.0048 0.9255,23.0938 C0.9885,23.1648 1.0515,23.2338 1.1135,23.3038 C1.1045,23.4188 1.0955,23.5318 1.0855,23.6458 C1.6215,23.8238 1.5535,23.4128 1.7905,23.2998 C2.1005,23.1528 2.1135,22.7018 2.7365,22.8748 C3.0435,22.6968 2.5495,22.5758 2.5185,22.4218 C2.6435,22.1008 2.8875,21.8488 3.1595,21.6138 C3.5635,21.6428 3.5355,21.3618 3.6595,21.1898 C3.6945,21.1598 3.7295,21.1288 3.7655,21.0988 C4.1825,21.3548 4.3955,21.1928 4.5575,21.0078 C5.2005,20.2648 6.1105,19.7338 7.0335,19.2128 L7.0335,20.9638 C7.0335,21.2998 6.9445,21.6158 6.7665,21.9128 C6.7605,21.9228 6.7515,21.9308 6.7445,21.9408 C6.5655,21.8698 6.4635,22.0138 6.3295,22.0718 C6.3175,22.0788 6.3075,22.0868 6.2945,22.0948 C6.2565,22.0508 6.2175,22.0068 6.1785,21.9618 C5.9675,22.0808 5.7405,22.1898 5.7645,22.4488 L5.5535,22.6698 C5.2485,22.5028 5.1015,22.6158 4.9635,22.7428 C4.9655,22.7728 4.9675,22.8018 4.9685,22.8318 L4.7515,22.8318 L4.7515,23.1278 L4.9015,23.1278 C4.9025,23.1628 4.9135,23.1988 4.9575,23.2408 C5.1205,23.3968 5.2225,23.2848 5.3085,23.2368 C5.3655,23.2058 5.4115,23.1648 5.4615,23.1278 L7.1185,23.1278 C7.1065,23.1538 7.0885,23.1758 7.0785,23.2038 C7.1245,23.2488 7.1455,23.2938 7.1415,23.3398 C7.0995,23.4038 7.0565,23.4678 7.0135,23.5318 C6.6095,23.8448 7.4535,24.2578 7.2725,24.5878 C7.3085,24.8228 6.7665,25.1168 7.6355,25.2648 C7.7185,25.1678 7.8525,25.1908 8.0025,25.2458 C8.1465,24.8718 8.7315,24.8788 9.0265,24.6348 C9.3675,24.6028 9.7075,24.5698 10.0475,24.5378 C10.2755,24.1778 9.9385,23.9908 9.4845,23.8398 C9.5535,23.5578 9.3925,23.3348 9.1715,23.1278 L15.3935,23.1278 L15.3935,22.8318 L15.0095,22.8318 C14.4945,22.8318 14.0555,22.6488 13.6895,22.2828 C13.3235,21.9178 13.1315,21.4778 13.1115,20.9638 L13.1115,3.8568 L14.1485,3.8568 C15.2755,3.8568 16.1755,4.2228 16.8475,4.9538 C17.5185,5.6858 17.8545,6.8318 17.8545,8.3928 C17.8545,8.6898 17.7705,9.1938 17.6025,9.9048 C17.4345,10.6168 17.1035,11.2388 16.6095,11.7728 C16.3915,11.9908 16.1005,12.2318 15.7345,12.4998 C15.3695,12.7658 14.8315,12.9588 14.1195,13.0778 L14.1195,13.3738 C15.3845,14.2828 16.7275,14.7378 18.1515,14.7378 C19.5555,14.7378 20.8795,14.2338 22.1245,13.2258 C22.8155,12.6528 23.3445,11.9408 23.7105,11.0908 C24.0755,10.2418 24.2595,9.3618 24.2595,8.4528 C24.2595,6.5358 23.5965,5.0728 22.2725,4.0648 L22.2725,4.0648 Z" id="Fill-1" fill="#00355F"></path>
                <path d="M42.432,18.4437 C42.234,18.0287 42.041,17.6527 41.854,17.3167 C41.665,16.9817 41.281,16.5507 40.698,16.0267 C40.115,15.5037 39.477,15.1527 38.786,14.9747 C40.247,14.7177 41.265,14.0857 41.839,13.0777 C42.332,12.2077 42.58,11.2587 42.58,10.2317 C42.58,6.9697 40.327,5.3397 35.821,5.3397 L25.621,5.3397 L25.621,5.6357 L25.978,5.6357 C26.393,5.6357 26.744,5.7837 27.031,6.0807 C27.317,6.3777 27.46,6.7427 27.46,7.1777 L27.46,21.2897 C27.46,21.7247 27.312,22.0897 27.015,22.3867 C26.719,22.6827 26.363,22.8317 25.948,22.8317 L25.621,22.8317 L25.621,23.1277 L35.139,23.1277 L35.139,22.8317 L34.871,22.8317 C34.476,22.8317 34.116,22.6977 33.789,22.4307 C33.463,22.1647 33.3,21.7837 33.3,21.2897 L33.3,6.7627 L33.894,6.7627 C34.17,6.7627 34.476,6.8217 34.813,6.9407 C35.128,7.0397 35.385,7.1877 35.583,7.3847 C35.781,7.5827 36.008,7.9737 36.265,8.5557 C36.522,9.1397 36.601,9.8757 36.502,10.7647 L36.502,10.9427 C36.384,12.0897 36.117,12.9147 35.702,13.4187 C35.286,13.9227 34.802,14.1737 34.249,14.1737 L34.101,14.1737 L34.101,14.4117 C34.555,14.6487 34.881,15.2117 35.079,16.1017 C35.415,17.7817 35.85,19.0767 36.384,19.9857 C36.72,20.5777 37.071,21.0967 37.436,21.5417 C37.802,21.9857 38.39,22.3867 39.201,22.7427 C39.793,22.9997 41.068,23.1277 43.025,23.1277 L46.523,23.1277 L46.523,22.8317 C45.99,22.8317 45.545,22.7227 45.189,22.5057 C44.517,22.0707 43.598,20.7167 42.432,18.4437" id="Fill-3" fill="#00355F"></path>
                <path d="M59.6869,20.0888 C58.8759,21.4628 57.7009,22.1498 56.1599,22.1498 C54.6179,22.1498 53.4409,21.4628 52.6309,20.0888 C51.8209,18.7158 51.4159,16.7638 51.4159,14.2338 C51.4159,11.7038 51.8209,9.7528 52.6309,8.3788 C53.4409,7.0048 54.6179,6.3178 56.1599,6.3178 C57.1869,6.3178 58.0559,6.6338 58.7679,7.2668 C60.1909,8.5118 60.9029,10.8438 60.9029,14.2638 C60.9029,16.7738 60.4979,18.7158 59.6869,20.0888 M64.1199,7.4148 C62.2109,5.7948 59.5639,4.9838 56.1739,4.9838 C52.7839,4.9838 50.1349,5.7948 48.2289,7.4148 C46.3209,9.0358 45.3679,11.3088 45.3679,14.2338 C45.3679,17.1588 46.3209,19.4318 48.2289,21.0528 C50.1349,22.6728 52.7839,23.4838 56.1739,23.4838 C59.5639,23.4838 62.2109,22.6728 64.1199,21.0528 C66.0269,19.4318 66.9799,17.1588 66.9799,14.2338 C66.9799,11.3088 66.0269,9.0358 64.1199,7.4148" id="Fill-5" fill="#00355F"></path>
                <path d="M68.1957,5.6361 L68.4917,5.6361 C68.9257,5.6361 69.3017,5.7941 69.6187,6.1101 C69.9337,6.4271 70.0927,6.8121 70.0927,7.2661 L70.0927,21.5271 C70.0927,22.9501 69.9547,24.1751 69.6777,25.2031 C69.3217,26.4681 68.5417,27.3861 67.3357,27.9601 L67.3357,28.2271 C67.7697,28.2861 68.3337,28.3161 69.0257,28.3161 C69.7167,28.3161 70.5277,28.1571 71.4567,27.8421 C72.7417,27.3671 73.8027,26.5821 74.6437,25.4851 C75.4837,24.3871 75.9037,23.0981 75.9037,21.6151 L75.9037,7.2071 C75.9427,6.7731 76.1157,6.4021 76.4227,6.0951 C76.7287,5.7891 77.0897,5.6361 77.5047,5.6361 L77.8307,5.6361 L77.8307,5.3401 L68.1657,5.3401 L68.1957,5.6361 Z" id="Fill-7" fill="#00355F"></path>
                <path d="M92.5062,20.4594 C91.5372,21.3294 90.4602,21.7644 89.2752,21.7644 L86.4282,21.7644 L86.4282,15.0634 L88.7112,15.0634 C89.5802,15.0634 90.2872,15.3504 90.8312,15.9234 C91.3742,16.4974 91.6472,17.2184 91.6472,18.0874 L91.6472,18.2064 L91.9432,18.2064 L91.9432,10.5574 L91.6472,10.5574 L91.6472,10.6164 C91.6472,11.5064 91.3742,12.2324 90.8312,12.7954 C90.2872,13.3594 89.5802,13.6504 88.7112,13.6704 L86.4282,13.6704 L86.4282,6.7034 L89.4822,6.7034 C90.5892,6.7234 91.4442,7.0494 92.0462,7.6814 C92.6502,8.3144 92.9502,9.2044 92.9502,10.3504 L92.9502,10.4984 L93.2472,10.4984 L93.2472,4.8954 C93.0102,4.9944 92.5852,5.0924 91.9732,5.1914 C91.3602,5.2904 90.8062,5.3394 90.3122,5.3394 L78.7502,5.3394 L78.7502,5.6364 L79.0752,5.6364 C79.4902,5.6364 79.8522,5.7844 80.1582,6.0814 C80.4642,6.3774 80.6172,6.7524 80.6172,7.2074 L80.6172,21.2904 C80.6172,21.7244 80.4202,22.1294 80.0252,22.5054 C79.8072,22.7234 79.4902,22.8314 79.0752,22.8314 L78.7502,22.8314 L78.7502,23.1274 L93.9292,23.1274 L94.7592,16.9014 L94.4922,16.9014 C94.1372,18.4044 93.4742,19.5904 92.5062,20.4594" id="Fill-9" fill="#00355F"></path>
                <path d="M110.3226,5.31 L98.4936,5.31 C97.9996,5.31 97.4456,5.261 96.8336,5.162 C96.2206,5.063 95.7856,4.964 95.5296,4.865 L95.5296,10.439 L95.8256,10.439 L95.8256,10.29 C95.8256,9.738 95.9046,9.233 96.0626,8.779 C96.5376,7.415 97.6246,6.723 99.3236,6.704 L101.4886,6.704 L101.4886,21.29 C101.4886,21.725 101.3356,22.09 101.0286,22.387 C100.7216,22.683 100.3616,22.831 99.9466,22.831 L99.6496,22.831 L99.6496,23.128 L109.1676,23.128 L109.1676,22.831 L108.8706,22.831 C108.4356,22.831 108.0646,22.683 107.7586,22.387 C107.4516,22.09 107.2996,21.725 107.2996,21.29 L107.2996,6.704 L109.4926,6.704 C110.2436,6.704 110.8766,6.852 111.3896,7.148 C112.4766,7.722 113.0106,8.769 112.9916,10.29 L112.9916,10.439 L113.2876,10.439 L113.2876,4.865 C113.1296,4.964 112.7246,5.063 112.0726,5.162 C111.4206,5.261 110.8376,5.31 110.3226,5.31" id="Fill-11" fill="#00355F"></path>
                <g id="Group-15" transform="translate(139.000000, 4.316300)">
                    <mask id="mask-2" fill="white">
                        <use xlink:href="#path-1"></use>
                    </mask>
                    <g id="Clip-14"></g>
                    <path d="M13.5101,10.0361 C12.9761,9.2251 12.1861,8.5931 11.1381,8.1391 L7.3141,6.3891 C6.5821,6.0931 6.0091,5.8071 5.5941,5.5301 C5.0601,5.1541 4.8231,4.6501 4.8821,4.0171 C5.0211,2.7131 6.0981,2.0611 8.1141,2.0611 C9.1611,2.0611 10.0351,2.3521 10.7381,2.9351 C11.4391,3.5181 11.7901,4.2941 11.7901,5.2631 L11.9681,5.2631 L12.6801,0.9341 L10.6941,0.9341 C8.8161,0.7561 7.3231,0.6671 6.2161,0.6671 C2.8961,0.6671 1.0181,2.1991 0.5831,5.2631 C0.5431,5.5791 0.5251,5.8951 0.5251,6.2111 C0.5251,7.1601 0.7511,8.0301 1.2061,8.8201 C1.7991,9.8481 2.7281,10.6291 3.9931,11.1621 L7.1061,12.6151 C8.1541,13.0701 8.9091,13.5241 9.3741,13.9791 C9.8381,14.4341 10.0711,14.9571 10.0711,15.5501 C10.0711,16.1431 9.8141,16.6671 9.3001,17.1211 C8.7851,17.5771 8.0251,17.8041 7.0171,17.8041 C5.3171,17.8041 3.9831,17.2801 3.0151,16.2321 C2.0661,15.1851 1.5911,13.9991 1.5911,12.6751 L1.5911,12.4081 L1.4131,12.4081 C0.9401,13.0001 0.5931,13.8211 0.3761,14.8691 C0.2971,15.2841 0.2571,15.7181 0.2571,16.1731 C0.2571,16.6281 0.3461,17.0621 0.5251,17.4771 C0.9001,17.9521 1.5761,18.3521 2.5551,18.6781 C3.5331,19.0041 4.7531,19.1671 6.2161,19.1671 C8.6671,19.1671 10.5841,18.6831 11.9681,17.7141 C13.5301,16.6281 14.3101,14.9971 14.3101,12.8231 C14.3101,11.7751 14.0431,10.8471 13.5101,10.0361" id="Fill-13" fill="#00355F" mask="url(#mask-2)"></path>
                </g>
                <path d="M8.016,25.2494 C8.011,25.2474 8.007,25.2484 8.002,25.2464 C8,25.2514 7.994,25.2544 7.992,25.2604 L8.016,25.2494 Z" id="Fill-16" fill="#00355F"></path>
                <path d="M3.1263,23.6937 C2.9453,23.6847 2.7933,23.7447 2.7973,23.8967 C2.8003,24.0107 2.9473,24.0477 3.0673,24.0757 C3.2713,24.1237 3.3973,24.0737 3.4613,23.9527 C3.3923,23.8297 3.3023,23.7027 3.1263,23.6937" id="Fill-18" fill="#00355F"></path>
                <path d="M1.3324,24.1474 C1.3354,24.1694 1.5024,24.2394 1.5814,24.2444 C1.9334,24.2694 1.7614,24.0514 1.7694,23.8914 C1.5224,23.9174 1.3014,23.9294 1.3324,24.1474" id="Fill-20" fill="#00355F"></path>
                <path d="M6.6234,21.0873 C6.6234,21.0593 6.4424,20.9503 6.4174,20.9593 C6.2074,21.0373 6.0354,21.1463 6.0834,21.4893 C6.3484,21.3503 6.6144,21.3163 6.6234,21.0873" id="Fill-22" fill="#00355F"></path>
                <path d="M5.3627,12.14 C4.9317,12.228 4.8477,12.492 4.9007,12.884 C5.3667,12.761 5.3287,12.433 5.3627,12.14" id="Fill-24" fill="#00355F"></path>
                <path d="M3.1058,12.1185 C2.9438,12.2735 2.8948,12.4545 2.9108,12.7345 C3.2698,12.4315 3.2698,12.4315 3.1058,12.1185" id="Fill-26" fill="#00355F"></path>
                <path d="M4.1175,12.1146 C3.8505,12.1606 3.7055,12.2586 3.8025,12.5886 C4.0285,12.4696 4.1865,12.3626 4.1175,12.1146" id="Fill-28" fill="#00355F"></path>
                <path d="M3.0502,13.8861 C2.5982,13.7491 2.5882,13.9461 2.6492,14.1971 C2.9142,14.1931 2.8862,13.9671 3.0502,13.8861" id="Fill-30" fill="#00355F"></path>
                <path d="M4.9388,15.4721 C4.7798,15.3001 4.6208,14.9831 4.3598,15.1011 C4.1138,15.2121 4.5128,15.3281 4.6488,15.4341 C4.7458,15.4471 4.8418,15.4591 4.9388,15.4721" id="Fill-32" fill="#00355F"></path>
                <path d="M3.1888,18.9057 C2.8828,18.6207 2.5798,18.2657 2.1088,18.2627 C1.7438,18.2607 1.8128,18.5537 1.8898,18.7977 C2.3238,18.8337 2.7558,18.8697 3.1888,18.9057" id="Fill-34" fill="#00355F"></path>
                <path d="M1.9379,20.2186 C2.0039,20.2376 2.0699,20.2556 2.1349,20.2736 C2.5379,20.3936 2.6279,20.0956 2.9209,20.0696 C2.9379,20.0466 2.9319,20.0206 2.9029,19.9936 C2.8749,19.6426 2.4829,19.6856 2.2349,19.5716 C2.3859,19.8976 1.4149,19.7286 1.9379,20.2186" id="Fill-36" fill="#00355F"></path>
                <path d="M128.7504,2.9813 C128.7544,2.9813 128.7564,2.9793 128.7604,2.9783 C128.7584,2.9723 128.7624,2.9683 128.7604,2.9623 L128.7504,2.9813 Z" id="Fill-38" fill="#00355F"></path>
                <path d="M132.6029,2.1342 C132.7209,2.0642 132.7879,1.9512 132.7069,1.8312 C132.6489,1.7422 132.5389,1.7762 132.4489,1.8052 C132.2969,1.8532 132.2429,1.9462 132.2619,2.0712 C132.3679,2.1392 132.4879,2.2022 132.6029,2.1342" id="Fill-40" fill="#00355F"></path>
                <g id="Group-44" transform="translate(133.000000, 0.316300)">
                    <mask id="mask-4" fill="white">
                        <use xlink:href="#path-3"></use>
                    </mask>
                    <g id="Clip-43"></g>
                    <path d="M0.5043,0.6904 C0.4903,0.6734 0.3513,0.6904 0.2983,0.7194 C0.0653,0.8504 0.2813,0.9494 0.3583,1.0814 C0.4983,0.9554 0.6323,0.8504 0.5043,0.6904" id="Fill-42" fill="#00355F" mask="url(#mask-4)"></path>
                </g>
                <path d="M131.7113,5.703 C131.7243,5.726 131.8933,5.735 131.9033,5.717 C131.9973,5.566 132.0513,5.406 131.8483,5.153 C131.7523,5.376 131.6013,5.516 131.7113,5.703" id="Fill-45" fill="#00355F"></path>
                <path d="M136.9857,12.2938 C137.2137,12.0398 137.1317,11.7938 136.9037,11.5038 C136.6727,11.7998 136.8607,12.0458 136.9857,12.2938" id="Fill-47" fill="#00355F"></path>
                <path d="M138.4144,11.3475 C138.4394,11.1545 138.3794,10.9895 138.2294,10.7735 C138.1554,11.1685 138.1554,11.1685 138.4144,11.3475" id="Fill-49" fill="#00355F"></path>
                <path d="M137.7816,11.7826 C137.9256,11.6316 137.9686,11.4926 137.7426,11.2706 C137.6586,11.4616 137.6136,11.6146 137.7816,11.7826" id="Fill-51" fill="#00355F"></path>
                <path d="M137.6605,9.4965 C137.4955,9.6135 137.6265,9.7815 137.5645,9.9155 C137.9175,9.8315 137.8245,9.6705 137.6605,9.4965" id="Fill-53" fill="#00355F"></path>
                <path d="M135.5824,9.4579 C135.7694,9.5279 136.0274,9.7109 136.1324,9.5059 C136.2314,9.3129 135.9224,9.3909 135.7834,9.3639 C135.7174,9.3959 135.6494,9.4269 135.5824,9.4579" id="Fill-55" fill="#00355F"></path>
                <path d="M135.9632,6.0267 C136.1932,5.8727 136.0032,5.6687 135.8322,5.5067 L134.9622,5.9757 C135.2972,6.0717 135.6662,6.2257 135.9632,6.0267" id="Fill-57" fill="#00355F"></path>
                <path d="M135.0902,4.3959 C135.0402,4.4089 134.9892,4.4219 134.9402,4.4359 C134.6262,4.5119 134.7192,4.7879 134.5472,4.9339 C134.5492,4.9599 134.5652,4.9779 134.5982,4.9869 C134.7902,5.2539 135.0162,5.0529 135.2292,5.0379 C134.9702,4.8419 135.6662,4.5629 135.0902,4.3959" id="Fill-59" fill="#00355F"></path>
                <path d="M137.5931,11.0287 C137.6241,11.1567 137.6721,11.2907 137.8161,11.3217 C137.9621,11.3537 138.1001,11.3157 138.1271,11.1687 C138.1491,11.0577 138.0341,11.0047 137.9421,10.9617 C137.7841,10.8887 137.6711,10.9207 137.5931,11.0287" id="Fill-61" fill="#00355F"></path>
                <path d="M139.3851,11.1166 C139.3871,11.0946 139.2641,11.0066 139.1981,10.9906 C138.9141,10.9216 139.0121,11.1536 138.9731,11.3066 C139.1801,11.3136 139.3651,11.3306 139.3851,11.1166" id="Fill-63" fill="#00355F"></path>
                <path d="M137.7464,14.6967 C137.6984,14.6967 137.6564,14.7087 137.6144,14.7237 C137.5934,14.6667 137.5674,14.6117 137.5214,14.5627 C137.5704,14.4077 137.4534,14.2697 137.3684,14.1287 C137.3344,14.1157 137.3024,14.0987 137.2694,14.0837 C137.2974,14.0227 137.3234,13.9617 137.3474,13.8977 C137.3264,13.8637 137.3034,13.8477 137.2804,13.8277 C137.4704,13.8087 137.5744,13.7177 137.5314,13.5037 C137.8644,13.5197 138.0304,13.9677 138.3614,13.9857 C138.3864,13.9927 138.4094,13.9917 138.4334,13.9987 C138.1504,14.1957 137.9914,14.4747 137.7464,14.6967 M125.1764,22.1497 C123.6344,22.1497 122.4574,21.4627 121.6474,20.0887 C120.8374,18.7157 120.4324,16.7637 120.4324,14.2337 C120.4324,11.7037 120.8374,9.7527 121.6474,8.3787 C122.4574,7.0047 123.6344,6.3177 125.1764,6.3177 C126.2034,6.3177 127.0724,6.6337 127.7844,7.2667 C129.2074,8.5117 129.9194,10.8437 129.9194,14.2637 C129.9194,14.9307 129.8864,15.5507 129.8284,16.1377 C129.8274,16.1407 129.8244,16.1427 129.8224,16.1467 C129.8244,16.1467 129.8254,16.1477 129.8274,16.1477 C129.6684,17.7647 129.2974,19.0827 128.7034,20.0887 C127.8924,21.4627 126.7174,22.1497 125.1764,22.1497 M133.9104,5.4517 C133.8384,5.2987 133.7794,5.1427 133.7634,4.9787 C133.7584,4.9647 133.7544,4.9497 133.7494,4.9347 C133.7824,4.9257 133.8164,4.9157 133.8504,4.9057 C133.8614,4.9907 133.8744,5.0767 133.8864,5.1627 C133.9984,5.2317 133.9284,5.3567 133.9104,5.4517 M134.9404,7.9867 C134.9734,8.0197 135.0184,8.0377 135.0644,8.0567 C134.9134,8.1837 135.0994,8.3097 135.0964,8.4367 C135.1234,8.4717 135.1504,8.5067 135.1794,8.5417 C135.1534,8.5777 135.1394,8.6087 135.1284,8.6367 C135.0884,8.5467 135.0554,8.4547 135.0464,8.3587 C134.8524,8.0177 134.8754,7.6417 134.7004,7.3287 C134.8444,7.5167 134.8374,7.7607 134.9404,7.9867 M135.9764,13.7547 C136.0214,13.7387 136.0674,13.7237 136.1134,13.7077 C136.1054,13.7147 136.0984,13.7187 136.0904,13.7257 C136.0554,13.7587 136.0154,13.7837 135.9784,13.8147 C135.9774,13.7947 135.9764,13.7747 135.9764,13.7547 M129.6064,4.8247 C129.6174,4.8097 129.6254,4.7937 129.6294,4.7757 C129.7534,4.8247 129.8754,4.8317 129.9964,4.7777 C129.9904,4.8247 130.0124,4.8657 130.0734,4.8977 C129.9184,4.8707 129.7494,4.8857 129.6064,4.8247 M139.9794,13.6457 C139.5834,13.3807 139.9364,13.1377 139.8034,12.8817 C139.6554,12.7417 139.5134,12.7077 139.3714,12.7037 C139.4514,12.6597 139.5194,12.6007 139.5564,12.5007 C139.6094,12.4027 139.7384,12.3107 139.5044,12.1847 C139.4674,12.1097 139.4294,12.0337 139.3924,11.9577 C139.4224,11.8487 139.4534,11.7407 139.4844,11.6327 C139.0804,11.3917 139.0534,11.7967 138.8344,11.8747 C138.5494,11.9757 138.4454,12.4087 137.9694,12.1617 C137.6804,12.2937 138.0614,12.4737 138.0564,12.6257 C137.8874,12.9197 137.6354,13.1317 137.3634,13.3227 C137.0374,13.2427 137.0024,13.5167 136.8654,13.6667 L136.8664,13.6667 L136.8654,13.6667 L136.7604,13.7397 C136.6464,13.6227 136.5474,13.5807 136.4564,13.5717 L136.4204,13.5087 C136.3224,13.5307 136.2254,13.5537 136.1274,13.5767 C136.1404,13.5607 136.1564,13.5467 136.1644,13.5277 C136.4184,13.3017 136.0684,12.8837 136.2544,12.8087 C136.8634,12.5667 136.7824,12.1667 136.7064,11.7857 C136.6234,11.3687 136.7624,11.1217 137.2384,10.9267 C137.6724,10.7487 137.8384,10.4237 137.6304,10.0237 C137.1564,9.9827 137.0624,10.3007 136.8424,10.5277 C136.9444,10.2387 136.8054,10.0487 136.4874,9.9287 C136.0754,9.7737 135.7094,9.8147 135.4404,10.1347 C135.2654,9.7887 135.2894,9.4997 135.3344,9.2097 C135.3284,9.0887 135.2804,8.9737 135.2274,8.8597 C135.3234,8.9107 135.4594,8.9437 135.5604,8.9927 C135.6464,9.0347 135.7334,9.0767 135.8204,9.1187 C135.9264,9.0927 136.1084,9.0957 136.0494,8.9687 C135.9534,8.7657 135.7254,8.7617 135.4974,8.8027 C135.3554,8.7297 135.2834,8.6327 135.3074,8.5017 C135.3304,8.2717 136.1604,8.6547 135.8004,8.1357 C135.8544,8.1317 135.9094,8.1257 135.9574,8.1047 C136.3414,7.8487 136.5554,7.5777 136.0274,7.2277 C136.5604,7.4007 136.8264,7.2807 136.7424,6.8397 C136.6994,6.6157 136.8134,6.4167 136.8064,6.2017 C136.7714,6.1117 136.7074,6.0427 136.5854,6.0117 C136.2714,5.9747 136.0774,6.1547 135.8294,6.2357 C135.0134,6.5047 134.3994,6.3147 134.0164,5.6637 C133.9974,5.6317 133.9844,5.5977 133.9674,5.5657 C133.9884,5.5727 134.0164,5.5787 134.0544,5.5797 C134.2824,5.5867 134.0584,5.3607 134.0734,5.2417 C134.2154,5.1647 134.1014,5.0557 134.1154,4.9637 C134.1034,4.8787 134.0944,4.7937 134.0834,4.7087 C134.1494,4.5367 134.0644,4.3767 133.9924,4.2147 C133.9574,4.2037 133.9304,4.2077 133.9024,4.2087 C134.0154,4.0757 134.0234,3.9467 133.8544,3.8257 C134.0854,3.6277 134.4904,3.8347 134.7214,3.6387 C134.8084,3.5977 134.8904,3.5507 134.9554,3.4887 C135.0514,3.3477 135.1234,3.2087 134.9164,3.0787 C135.0724,3.0987 135.1754,3.2577 135.3674,3.2187 C135.7254,2.9947 135.7934,2.7177 135.5644,2.3867 C135.1284,2.4527 135.2014,2.0617 134.9434,1.9677 C134.7544,1.9637 134.6384,2.0297 134.5414,2.1157 C134.5644,2.0347 134.5724,1.9507 134.5294,1.8587 C134.5004,1.7577 134.5244,1.6127 134.2874,1.6727 C134.2124,1.6437 134.1384,1.6147 134.0624,1.5857 C134.0124,1.4907 133.9614,1.3957 133.9094,1.3007 C133.4834,1.3887 133.7324,1.6867 133.6404,1.8777 C133.5184,2.1277 133.7364,2.4917 133.2584,2.6207 C133.1544,2.8927 133.5254,2.7787 133.6214,2.8877 C133.7044,3.1967 133.6784,3.5017 133.6244,3.8057 C133.3554,3.9547 133.5144,4.1667 133.5224,4.3567 L133.5234,4.3567 L133.5214,4.3567 L133.5014,4.4737 C133.1114,4.4477 133.0584,4.6687 133.0494,4.8847 C133.0214,5.6077 132.8044,6.2917 132.5474,6.9677 C132.1284,6.6697 131.6764,6.4077 131.1954,6.1767 C131.1974,6.1067 131.2074,6.0367 131.1854,5.9627 C131.1234,5.9217 131.0594,5.8807 130.9964,5.8387 C131.0014,5.8217 131.0044,5.8057 131.0094,5.7887 C131.0674,5.5497 131.1724,5.3167 131.1254,5.0627 C131.3464,5.0877 131.3404,4.9097 131.4014,4.7937 C131.4054,4.7827 131.4084,4.7707 131.4124,4.7597 C131.4594,4.7787 131.5054,4.7977 131.5524,4.8157 C131.6254,4.6317 131.7134,4.4477 131.5684,4.2517 C131.5754,4.1627 131.5824,4.0737 131.5904,3.9847 C131.8654,3.9887 131.9004,3.8367 131.9244,3.6757 C131.8904,3.6257 131.8544,3.5747 131.8194,3.5247 C131.7934,3.4347 131.8234,3.3197 131.6794,3.2767 C131.4984,3.2217 131.4904,3.3537 131.4604,3.4287 C131.4104,3.5527 131.3894,3.6847 131.3554,3.8127 C131.0944,4.1297 131.2194,4.5567 130.9124,4.8607 C130.8824,4.8147 130.8504,4.7687 130.8204,4.7217 C130.2874,4.9097 130.3444,5.3667 130.2774,5.6887 C130.2704,5.7197 130.2644,5.7517 130.2564,5.7837 C130.2324,5.7747 130.2074,5.7657 130.1834,5.7577 C130.1574,5.6757 130.1274,5.5957 130.0824,5.5167 C130.1064,5.5137 130.1274,5.5167 130.1564,5.5087 C130.3304,5.4197 130.3854,5.2907 130.3504,5.1317 C130.3384,5.0977 130.3004,5.0777 130.2794,5.0487 C130.3784,4.7777 130.4544,4.5037 130.3634,4.2117 C130.3124,4.1947 130.2764,4.1677 130.2564,4.1297 C130.2514,4.0597 130.2464,3.9907 130.2404,3.9217 C130.3374,3.5007 129.6004,3.5317 129.5484,3.1917 C129.4074,3.0197 129.6014,2.5537 128.9814,2.8067 C128.9774,2.9187 128.8824,2.9587 128.7604,2.9777 C128.8564,3.3387 128.4854,3.5817 128.4224,3.9017 C128.2254,4.0727 128.0274,4.2437 127.8304,4.4147 C127.8654,4.7997 128.1714,4.8047 128.5324,4.7317 C128.7134,5.1957 129.2724,5.1817 129.7134,5.3177 C129.7034,5.4067 129.7064,5.4967 129.6984,5.5867 C128.3794,5.1847 126.8774,4.9837 125.1904,4.9837 C121.8004,4.9837 119.1514,5.7947 117.2454,7.4147 C115.3374,9.0357 114.3844,11.3087 114.3844,14.2337 C114.3844,17.1587 115.3374,19.4317 117.2454,21.0527 C119.1514,22.6737 121.8004,23.4837 125.1904,23.4837 C127.1064,23.4837 128.7774,23.2157 130.2204,22.6967 C130.2704,23.1347 130.4554,23.6107 130.8204,24.0867 C131.1834,24.5587 131.4134,24.8907 131.9324,24.6957 C132.2784,24.7817 132.0494,25.4997 132.4054,25.2767 C132.8774,24.9827 133.5484,25.0787 133.9384,24.6927 C133.8654,24.6437 133.7924,24.5947 133.7194,24.5477 C133.1884,24.3487 132.7634,24.5897 132.2644,24.5247 C132.3094,24.4517 132.3274,24.3667 132.3284,24.2737 C132.4834,24.1917 132.4944,24.0027 132.5344,23.8337 C132.4674,23.7037 132.4434,23.5537 132.2994,23.4557 C132.3044,23.4277 132.3204,23.4177 132.3194,23.3807 C132.0584,22.7387 131.5424,22.7167 131.0484,22.6337 C131.0104,22.6587 130.9734,22.6507 130.9344,22.6307 L130.9344,22.6217 C130.9594,22.5987 130.9884,22.5817 131.0264,22.5827 C131.2144,22.6597 131.4074,22.7447 131.5444,22.5927 C131.5764,22.5527 131.6174,22.5357 131.6624,22.5277 C131.8504,22.6107 132.0374,22.6937 132.2254,22.7767 C132.2324,22.7447 132.2414,22.7137 132.2494,22.6817 C132.1544,22.6287 132.0594,22.5757 131.9644,22.5227 C131.9874,22.5197 132.0124,22.5207 132.0314,22.5127 C132.4034,22.5237 132.4424,21.9547 132.6464,22.0327 C133.3134,22.2877 133.5524,21.9267 133.7794,21.5837 C134.0284,21.2077 134.3264,21.1217 134.8524,21.3167 C135.3324,21.4937 135.7104,21.3677 135.8474,20.9147 C135.5014,20.5427 135.1854,20.7167 134.8404,20.7287 C135.1394,20.5847 135.1734,20.3397 135.0104,20.0207 C134.8874,19.7797 134.7224,19.6097 134.5184,19.5107 C134.5914,19.4067 134.6594,19.2997 134.7254,19.1907 C134.7944,19.3497 134.8764,19.5017 135.0474,19.4447 C135.2724,19.3697 134.9674,19.2067 134.8774,19.0867 C134.8544,19.0787 134.8314,19.0717 134.8084,19.0637 C134.8774,18.9457 134.9394,18.8227 135.0034,18.7007 C135.0324,18.7767 135.0624,18.8517 135.0924,18.9257 C135.1954,18.9817 135.3394,19.1167 135.3874,18.9777 C135.4604,18.7697 135.3064,18.6107 135.1104,18.4817 C135.1704,18.3577 135.2364,18.2387 135.2894,18.1097 C135.4854,18.2407 135.7344,18.6857 135.8194,18.1677 C135.8664,18.2037 135.9144,18.2387 135.9684,18.2577 C136.4674,18.3397 136.8424,18.2887 136.6874,17.6437 C136.9804,18.1577 137.2824,18.2597 137.5494,17.8657 C137.6844,17.6647 137.9264,17.5957 138.0814,17.4267 C138.1234,17.3347 138.1234,17.2357 138.0504,17.1247 C137.8294,16.8707 137.5384,16.8667 137.2794,16.7507 C136.5544,16.4237 136.2204,15.9417 136.2454,15.3347 C136.3014,15.3467 136.3464,15.3687 136.4034,15.3797 C136.8714,15.4657 137.2024,15.5177 137.4244,15.2567 C137.5174,15.3087 137.6274,15.3467 137.7084,15.4107 C137.6844,15.2727 137.8014,15.2407 137.9234,15.2127 C138.0664,15.3187 138.1854,15.4177 138.2344,15.2107 C138.3404,14.7597 138.7424,14.4227 138.8284,13.9877 C138.9244,13.9417 138.9844,13.8657 138.9394,13.7027 C139.0504,13.8307 139.0124,14.0247 139.1924,14.1337 C139.6484,14.2227 139.9114,14.0607 139.9794,13.6457" id="Fill-65" fill="#00355F"></path>
                <path d="M133.6175,22.1693 C133.9905,22.1403 134.1125,21.8963 134.1495,21.5123 C133.7415,21.5693 133.7065,21.8913 133.6175,22.1693" id="Fill-67" fill="#00355F"></path>
                <path d="M135.4701,22.4818 C135.6351,22.3538 135.7121,22.1858 135.7561,21.9138 C135.3991,22.1598 135.3991,22.1598 135.4701,22.4818" id="Fill-69" fill="#00355F"></path>
                <path d="M134.6371,22.3554 C134.8661,22.3454 135.0051,22.2704 134.9921,21.9394 C134.7831,22.0234 134.6311,22.1074 134.6371,22.3554" id="Fill-71" fill="#00355F"></path>
                <path d="M135.8773,20.7855 C136.2213,20.9755 136.2693,20.7875 136.2703,20.5375 C136.0513,20.5065 136.0273,20.7285 135.8773,20.7855" id="Fill-73" fill="#00355F"></path>
                <path d="M137.5443,16.6884 C137.8443,16.7384 137.8473,16.4464 137.8333,16.2014 C137.4843,16.1104 137.1353,16.0204 136.7863,15.9294 C136.9803,16.2434 137.1573,16.6254 137.5443,16.6884" id="Fill-75" fill="#00355F"></path>
            </g>
        </g>
    </g>
</svg>